<svg xmlns="http://www.w3.org/2000/svg" viewBox="0 0 673.21 673.3"><defs><style>.a{fill:#751710;}.b{fill:#912417;}.c{fill:#ebe8e8;}.d{fill:#fff;}.e{fill:#dc3522;}</style></defs><title>bjcs-location-map</title><path class="a" d="M481-114q0,295.2.1,590.5c0,3.7-.8,4.6-4.6,4.6q-177.75-.15-355.5-.1c-2.4-9.6-4.5-19.3-7.1-28.9-1-3.8-4.8-4.4-7.7-3.3-7.7,2.7-14.4-.4-20.9-3.3-4-1.8-6.9-1.3-9.3,1.4-3,3.5-4.5,9.1-11,6.4a1.69,1.69,0,0,0-.5.2c-1,.6-2,1.2-3.1,1.8-.1-1.7-.1-3.4-.3-5.1s-.1-3.7-1-4.5c-2.1-1.9-4.9-3.1-7.3-4.6a102.32,102.32,0,0,1-8.9-5.6,5.13,5.13,0,0,1-1.7-3.6c0-1.1,1-2.3,1.5-3.5,1,.8,1.9,1.6,2.9,2.4s2.2,2.4,3.5,2.7A20.34,20.34,0,0,1,64,445.9c1.6,3.7,3.3,3.8,6.1.7,2.1-2.3,3.7-5.8,8-4.1.5.2,1.6-.3,2.2-.8,2.8-2.6,3.7-13.3,1.4-16.4-2-2.6-3.9-5.3-6-7.8-.6-.6-2.2-.2-3.2-.4a4.74,4.74,0,0,1-2.4-1c-1.5-1.7-2.7-3.7-4.1-5.5-.5-.6-1.4-.8-2-1.3.7-.3,1.5-.7,2.2-1,5.6-2.2,6.1-3.7,2.9-8.8a8.16,8.16,0,0,1-1.1-1.7c-.4-1.4-.7-2.8-1-4.1,1.7-.4,4-1.7,5.1-1,2.4,1.5,4.1,4,6.1,6,.8.8,1.8,1.4,2.6,2.1a10.8,10.8,0,0,0,1.9-3c.4-1.5-.1-3.3.5-4.8,3.5-8.9,1.7-14-6.6-18.8a2.56,2.56,0,0,1-.6-2.4c2.9-6.7,2.9-6.7-4.4-8.2a21,21,0,0,1-2.4-.6c-1.6-.6-3.3-1.3-4.9-1.9a25.22,25.22,0,0,0,4.8-.4c2.6-.7,5.1-1.7,7.6-2.6-1.4-1.8-2.9-3.5-4.3-5.3a7.1,7.1,0,0,1-1-1.4,6.07,6.07,0,0,1,1.8-.5c3.8.4,4.3-2,3.4-4.5-.7-1.8-2.7-3.1-4-4.8a19.83,19.83,0,0,1-1.1-2,5.66,5.66,0,0,1,1.8-.3c3.1.3,4.8-.5,4.1-4.2-.2-.8,1-1.9,1.7-2.8,6-8.4,4.8-12.5-4-17.3a7.74,7.74,0,0,0-3.3-1.2c-8.1-.7-13.1-6.9-19.3-10.9a2.37,2.37,0,0,1-.7-2c.6-3.4-1.6-4.5-4.1-5.8-1.7-.9-3.9-3-3.9-4.5.1-3.2-1.9-4.4-3.8-4-3.5.8-8-3.4-10.6,1.9a6.38,6.38,0,0,0-.1,2.4v3.2c-.5-1-1.4-2-1.6-3-.9-5.2-3.1-8.4-9.1-6.6a6.8,6.8,0,0,1-4.8-.8c-2.2-1.3-3.9-2.4-5.9.4-.4.5-2.3,0-3.5,0,.4-.8.9-1.6,1.2-2.4.5-1.3,1.5-3.1,1-4-1.2-2.4-3.2-4.3-4.7-6.6a25.83,25.83,0,0,1-2.2-4.4c-.1-.2,1.4-1.5,1.7-1.3,2,.9,5.4,2.1,5.4,3.2-.1,5.7,5.1,4,7.6,5.9a7.7,7.7,0,0,0,2.7-2.6c.5-1,.3-2.3.4-3.5a22.15,22.15,0,0,1,2.5,3.5c.7,1.1.8,2.6,1.6,3.6,1.4,1.8,3.2,3.5,4.8,5.2.7-1.8,1.3-3.7,2-5.5a29.62,29.62,0,0,1,1.5-3.1c1,1,3,2.2,2.8,3-1.3,5.6,3.5,5.4,6,5.6,5.3.3,7.4,3.2,9.3,7.6.7,1.7,3,3,4.9,3.8s4.7.3,6.3,1.5c3.7,2.7,6.8,6.1,10.3,9.1.8.7,2.6,1.3,3,.9a4.67,4.67,0,0,0,1.3-3.4c-.2-2.8-1.5-5.6-1.1-8.2.6-3.6-.5-5.8-2.5-8.5a24,24,0,0,1-4.4-10.4c-.4-2.8,2.3-6.1-1.9-8.1a2.5,2.5,0,0,1-.1-2.1c3-5,.6-8.3-3-11.6-4.4-4.1-9.4-7.9-9.7-15-.3-7.8-1.2-15.5-2.1-23.3-.1-1.3-1.4-2.5-2.3-3.7a15.53,15.53,0,0,0-2.3-2.1,15.71,15.71,0,0,1,2.4-2.1c4.3-2.2,6.6-7.1,4.6-11.1-1.6-3.1-1-4.5,2.1-6s2.8-6.3-.2-7.8a15.76,15.76,0,0,1-1.5-1.2c.5-.2,1-.5,1.6-.7a13.59,13.59,0,0,0,2.8-1.1c1.8-1.2,4.9-2.7,4.9-4,0-1.9-2.4-3.7-3.8-5.6-.3-.4-1-1.1-.9-1.4,3.2-7.7.7-13-7.2-15.8-.9-.3-1.5-1.4-2.2-2.1v-.1c1.3-.2,3-1.1,3.8-.6,5.1,3.2,5.8-.9,7.1-4,.8-2,1.7-4,2.3-6s1-3,3.9-2.8c3.7.4,8.6.4,8.8-5.7,0-.4.7-.9,1.1-1.3,1.6-1.3,3.4-2.5,4.9-3.9,1.8-1.6,3.4-3.7,5.4-5,4.2-2.8,5.7-6,3.3-10.9a5.24,5.24,0,0,1,.8-4.7c1.3-1.2,3.5-1.6,5.3-2a18.75,18.75,0,0,1,4.1-.1h0c-1,3.2-3.7,7.5-2.6,9.5,3.3,5.7-4.4,7-3.3,11.2-6.1-2.3-8.1,2.2-10.6,6.2-.2.3-1.2,0-1.4.3a13.5,13.5,0,0,0-1.5,2.6,34.22,34.22,0,0,1-1.3,3.4c-2.5,4.8-5.3,9.4-7.3,14.4-.8,1.9-.6,5.5.7,6.6,3.7,3.3,4.4,7.3,3.8,11.5-.6,3.8,1,5.1,4.1,6a12.42,12.42,0,0,1,3,1.6c-1.3.6-2.9,2.1-3.7,1.7a32.36,32.36,0,0,1-6.9-4.7c-1-.9-1.5-2.6-2.2-3.9-1.3,1.4-3.3,2.7-3.7,4.3-1.7,6.7-3,13.5-4.1,20.3-.2,1.4.7,3,1.1,4.5,1.3-.9,2.6-1.7,3.8-2.6,2.6-2,1.3-7,6-7.7,1.7-.2,3.2-1.6,4.8-2.3.3-.1,1.2.4,1.2.7.4,3.4.7,6.7,1,10.1a12.86,12.86,0,0,1-.4,1.9c-.7-.4-1.7-.6-2.1-1.2-2.7-4.1-3.8-4.1-6.9-.3-4.8,6-5.9,13.1-5.3,20.5.1,1.4,1.3,2.7,2,4,1.2-1,3.2-1.8,3.4-3,.7-3.6,3.3-3.3,5.3-2.5a30.43,30.43,0,0,1,7.6,4.8c.8.6.5,2.5.7,3.8-1.3.2-3.3,1-3.9.5-2.7-2.4-3.8-.1-5.2,1.4-1.2,1.3-2.1,2.8-3.3,4.1-1.5,1.6-2.6,2.8,0,4.7,2.4,1.8,1.8,3.8-.6,5.7-1.3,1.1-3.2,3.4-2.9,4.3,2.5,6.5,4.6,13.4,10.7,17.6.6.4,1.9,0,2.8-.3.7-.3,1.2-1.2,1.8-1.9,1.1,1.3,3.4,2.8,3.2,3.8-1,4.7,2.6,5.9,5.3,7.1,5.5,2.6,6.6,6,2.7,10.7a3.83,3.83,0,0,0-.5,1.9c-.5,3.8,2,5.7,7.6,5.4.9,0,2.4-1.8,2.5-2.8.1-4-.3-8-.5-11.9l.3-.3c4.3,4.7,6.2,5,7.8,1a12.86,12.86,0,0,0,.4-1.9c.4.6.7,1.5,1.3,1.8a15.93,15.93,0,0,0,4.2,1.9c.2.1.9-1.9,1.5-2.8a9.55,9.55,0,0,1,1.2-1.6c.5.5,1.3,1,1.4,1.6,1.1,3.9-1.2,5.6-5.4,5.8-2.5.1-5.9,1.6-7.1,3.6-1.1,1.8-.7,5.9.7,7.6,2.1,2.6,4.2.1,6-1.7.6-.6,2.7.2,4.1.3a14.25,14.25,0,0,1-1.3,2.8c-2,2.4-4.1,4.5-.9,7.7.6.6-.1,2.7-.6,4.1s-1.9,2.9-1.7,4c.6,2.9,1.3,6.4,3.3,8.2,1.2,1,6.2-.2,7.2-1.9,2-3.1,4.2-3.3,7.1-3.3a54.59,54.59,0,0,1,5.7.4c-1.5.5-3.4.6-4.4,1.6a35.07,35.07,0,0,0-4.2,5.9,30.62,30.62,0,0,1,4.9,2.2c2.2,1.5,4.2,3.3,6.3,5,0,0-.4.9-.7,1-3.6,1.3-7.1,2.9-10.7,3.7-3,.7-5.5,1.7-4.8,5,1.4,5.8-3,9.4-4.5,14-1.2,3.7-4.3,6.8-5.6,10.4s-1.5,7.5-2.2,11.3l-3.9,19.2a14.59,14.59,0,0,1-1.2,3.7c-2.6,4.8-1.7,9.7-.4,14.5,1.4,5,3.2,9.8,4.9,14.7.3.9,1.6,2.1,2.4,2,1.3,0,3.3-.6,3.8-1.5.9-1.8.9-4.1,1.3-6.1.1-.1.3-.2.4-.3l4.3,3.7c.6-1.8,1.1-3.7,1.7-5.5,1.1-3.3-3.3-7.4,1.5-10.1.1,0-.2-.6-.2-.9-.2-2.9-.3-5.9-.6-8.8-.2-2.4,1.3-5.6-2.7-6.5,0,0,.1-1.7.3-1.7a26.75,26.75,0,0,1,4.9.1,7.66,7.66,0,0,1,2.3,1,14.63,14.63,0,0,0,.4-4.1c-.1-.8-2-1.2-2.1-2a9.27,9.27,0,0,1,.4-5c.4-.8,2.9-1.6,3.6-1.2,3.5,2.4,5.5,1,7.1-2.2.3-.6,1.1-1,1.7-1.4.2.7.3,1.4.5,2,.3.8.8,1.7,1.2,2.5.9-.5,2.1-.8,2.8-1.6a6.94,6.94,0,0,0,1.6-3.6c.4-3.2,0-6.7,1-9.7,1.7-5.3,4.5-10.2,6.1-15.4,2.3-7.5,4.1-15.2,6-22.8a44.76,44.76,0,0,0,.7-6.4l6.9,3c.6.3.9,1.2,1.5,1.3,1.1.1,3,.3,3.4-.3,4.5-6.9,9.6-13.5,13-20.9,3.1-6.6,4.6-14,6.7-21.1,1.6-5.6,2.4-11.5,4.5-16.8,3.5-8.8,7.4-17.3,5.2-27.1-1.2-5.4-2.5-10.7-3.6-16.1-.3-1.3.2-2.6.1-3.9-.8-6.5-1.7-13-2.8-19.5-.1-.8-1.7-1.4-2.7-2.1-4.1,6-8.2,1.5-10.6-1.1-4.3-4.6-9-9.9-10.5-15.7-1-4-1.1-8-4.5-10.7-7.2-5.6-8.2-12.8-6.8-21.4.7-4.1-.8-8.8-2.1-13-1.1-3.5-3.3-6.5-7.7-6.7-.4,0-.8-.8-1.1-1.3-2.6-4.1-5.3-8.2-7.9-12.3a1.21,1.21,0,0,1,.5-.5c4.7.6,7.8,3.7,11.2,6.8,6.2,5.8,12.5,11.8,19.7,16.2,3.8,2.3,7,3.2,7.9,8.4.8,4.6,4.2,4.6,8,1.4,1.5-1.3,5.9-2,6-1.8,1.9,4.7,5.9,2.8,9.1,3,3.9.2,6.6,1.7,6,6.1a29.45,29.45,0,0,1-1.9,6.6c-1.3,3.7-3.3,7.2-3.9,11-1.9,11-1.6,11.5,9,8.2,4-1.2,7.4-4.5,10.6-7.4,1.1-1,.5-3.7,1.5-5.2,1.9-2.9,4.6-5.4,6.6-8.3.7-1,1-3.1.4-4-3.7-6.1-2.2-9.9,4.9-11.8a8.12,8.12,0,0,0,3.6-2.5c2.8-3.4,4.8-8,8.3-10.1,6-3.6,11.6-7.2,15.3-13.4,2.1-3.6,4.5-7,6.4-10.7.4-.7-.5-2.7-1.4-3.3-2.8-1.8-1-2.8.6-2.8,2.9-.1,3.7-1.6,4.6-4.1,1-3,2.9-5.6,4.2-8.5,3.4-7.9,8.2-15.6,9.8-23.8,2.6-13.8,3-27.9,4.5-41.9.7-6.9,1.2-13.9,2.9-20.6a57,57,0,0,0,.6-26.6,9.53,9.53,0,0,0-2.6-4.7c-.8-.8-2.6-.8-3.9-1.1.1,1.2.2,2.4.4,3.6.2,1,.7,2,1,3a11.56,11.56,0,0,1-3.2-.8c-5.6-2.8-10.9-6.4-17.5-2-.6.4-2.9-1.9-4.5-3,1.1-.6,2.2-1.1,3.3-1.7,1.9-1,3.8-2,5.7-2.9,4.7-2.3,9.2-5,12.1-9.6.3-.4,1.5-.3,2.3-.3,8.1.3,10.3-1.1,14-8.5.5-1.1,3-1.6,4.5-1.6s2.8.9,4.2,1.4c-1.2.6-2.7,1-3.6,1.9a50.67,50.67,0,0,0-3.6,5.4,37.45,37.45,0,0,0,5.8-.1c1.9-.3,3.8-1.8,5.6-1.6,12,1.6,23.2-1.5,34.3-5.3,2.8-1,5.6-2.7,8.5-2.7,10.6-.2,20-3.8,29.2-8.4,9.9-5,19.7-10.2,29.7-15.1,11.8-5.8,23.8-11.3,35.6-17.3C463.8-104.1,472.3-109.2,481-114Z" transform="translate(192.1 192.2)"/><path class="b" d="M-192,80q0-134-.1-268c0-3.4.7-4.1,4.1-4.1q181.5.15,363,.1c.3,2.5,1.6,5.3.7,7.3-2,4.7.2,7.9,2.7,11.3s4.3,8.3,7.7,10.2c5.8,3.3,11.3,7.9,18.8,7.7,2,0,4.9,2.7,5.8,4.8.5,1.3-1.6,4.5-3.3,5.7-4.3,3-6.8,7-8.5,11.9-2.3,6.3-4.1,13.1-10.7,16.9-1,.6-1.4,2.5-2,3.7-.8,1.5-1.3,3.4-2.5,4.6-2.6,2.6-5.4,5-8.2,7.3-3.3,2.7-4.8,5.4-1.7,9.3a41.33,41.33,0,0,1,4.5,7.2,5.81,5.81,0,0,1,.5,3.4,38,38,0,0,1-1.8,5.4c-.5,1.3-1.1,3.2-2.1,3.5-6.5,1.6-7.5,6.6-7.5,11.9s.5,10.8.8,16.2c.3,5,2.5,7.6,7.9,6.8,4.2-.7,6.2,1.6,6.5,5.6a28.85,28.85,0,0,0,.7,5.9c.6,2.2,1,5.4,2.4,6.2,5.9,3,9.9,7.3,13.8,12.7,4.5,6.3,11.2,11,16.9,16.3,2.7,2.6,1.7,3.5-1.4,4.6-2.8,1-5.2,3.1-7.7,4.7-1.1.7-1.9,2.1-3.1,2.3-6.3,1.4-10.4,5.6-14.6,9.9a11.91,11.91,0,0,1-4.4,3c-4.9,1.7-7.3,5.2-7,10.1.3,3.9-1.1,6.1-4.7,6.9-3.2.8-6.5,1.1-9.7,1.8-1.7.4-4.1.6-4.9,1.8-3.7,5.3-7.6,3.4-12.5,1.8-10.6-3.5-21.2-2.2-26,8.6-2.4,5.3-5.8,6.8-11.2,6.9q-23.7.45-47.4,1.5C28.9,75-4,76.7-36.9,77.8c-27.2.9-54.5,1.1-81.8,1.5C-143.1,79.6-167.5,79.7-192,80Z" transform="translate(192.1 192.2)"/><path class="b" d="M119,481q-153.3,0-306.7.1c-3.6,0-4.4-.7-4.4-4.3q.15-131.85.1-263.8c1.6-3.1,3.2-6.1,4.9-9.2,2.2-4,2.6-10,9.9-8.8,1.2.2,3-1.9,4.3-3.1,1.8-1.6,3.4-4.7,5.2-4.9,5.5-.5,7.2-5,8-8.4,1.5-6.1,5.3-9.5,9.4-13.4,2.7-2.6,4.6-6.6,5.8-10.3,1.3-4.3,1-9.1,2.2-13.4,1.1-4,5.6-7.2,2.3-12.2-.6-.9.6-3.1,1-4.7a34.47,34.47,0,0,1,3.2,2c3.4,2.7,6.7,5.4,10.1,8.1q16.65,13.5,33.4,26.9c4.3,3.5,5.6,3,7.3-2.1s3.4-10.4,5.1-15.7c1.4-4.5,3.6-6.4,8.8-5.4A25.27,25.27,0,0,1-57,146.1c2.4,2.6,2.6,4.6.3,7.3a8,8,0,0,0,.3,11.5c4.3,4.2,8.7,7.9,15.6,6.9,5.6-.8,8.2,1.9,10,7.3.5,1.5,2.1,3.3,3.4,3.6,4.2.9,7.9,2.2,11.3,5.4,5,4.6,9.2,16.6,6.5,22.5-.3.6-.9.9-1.3,1.4-2.1,2.8-4.1,5.8-6.4,8.5-.6.7-2.1.9-3.3,1.1-2,.3-5.4-.4-5.9.6-1.7,3.3-2.4,7.2-3.6,10.8-1.7,5.5-3.5,11-5.3,16.4a2.54,2.54,0,0,1-1.2,1.3c-5.4,1.9-5.3,1.9-1.5,5.9,1.7,1.8,4.8,3.6.1,5.7-.3.1-.2,2.9.3,3.1,7.1,3.5,14.5,3.2,21.5-.2,3.8-1.9,7-4.9,10.6-7.3.4-.3,1.9.1,1.9.4.4,2,1.5,4.9.6,6-3.1,3.7-.8,5.7,1.6,7.8a40.1,40.1,0,0,1,3.8,3.2c1.6,1.8,2.5,3.8-.6,5-4.5,1.7-3,3.4-.1,5.2,2.6,1.6,5.1,4,8.2.6.2-.2,1.3.3,1.9.4,1.5.2,3.1.8,4.6.6,6.9-.8,8.2.5,9.1,7.5.3,2.1,2.5,4,4,5.8.5.6,1.7.5,2.6.7a13.33,13.33,0,0,0,.3-2.8c-.2-2.4-.6-4.7-.7-7.1a2.85,2.85,0,0,1,.8-2c.6-.2,1.5.3,2.1.7,2.1,1.4,4.1,3.2,6.3,4.4,3.9,2.2,6.1,4.6,3.6,9.4-1.9,3.6-.5,7.1,3.3,7.9,3.2.7,5.1,1.8,5.9,4.9.2.7,1,1.2,1.6,1.8.5-.6.9-1.2,1.4-1.8.9-1.2,1.8-2.5,2.8-3.7a39.47,39.47,0,0,0,3.3,3.7,10.19,10.19,0,0,0,3,2.1c.3.1,1.2-.8,1.7-1.3a13.24,13.24,0,0,0,1.2-2c.6,1,1.2,1.9,1.7,2.9a29.88,29.88,0,0,1,.9,3.2c.3,1.1.5,2.2.8,3.4a19.31,19.31,0,0,1-4.2-.5c-1.7-.5-3.2-1.9-4.8-2.1-1.2-.2-2.6.9-3.9,1.3.5,1.3.7,3.1,1.6,3.7,2.5,1.5,5.5,2.2,7.9,3.7,2,1.2,3.4,3.2,5.1,4.9a13.76,13.76,0,0,0-3.4,1.2,4.22,4.22,0,0,0-1.6,2.7c-.5,3.3-.8,6.6-1,9.9a19.54,19.54,0,0,0,.6,4.7c.2.9.5,1.9.7,2.8-.8.1-1.8.7-2.2.3a5.66,5.66,0,0,1-1.9-2.4c-.5-1.2-.1-2.8-.8-3.6-2.6-3.3-5.5-6.3-8.2-9.5-1.6-1.9-3.2-3.2-4.9-.1a10,10,0,0,1-2.2,1.9c-.4-.8-1.2-1.7-1.1-2.5.2-3-.2-5.4-4-5.3-.5,0-1.3-.3-1.3-.5.2-6.5-5.5-4.3-8.4-5-4.1-.9-5.6-1.7-3.1-5.7.4-.7-.5-2.8-1.4-3.7a11.66,11.66,0,0,0-4.5-2.1c-1.3-.4-3-.9-4.1-.5a5.44,5.44,0,0,0-2.4,3.3c-.1.5,1.8,1.4,2.6,2.3a16.94,16.94,0,0,1,2.3,3.6c.8,1.7.9,4,2.1,5.3,2.5,2.6,5.7,4.7,8.5,7.1,3.4,2.9,7.1,5.6,8.8,9.9.5,1.2.7,2.5,1.1,3.8s.5,3.4,1.4,3.8a45,45,0,0,0,8,2.9c2.4.7,5,.9,7.3,1.8,1.8.6,3.4,2.2,5.2,2.8,2,.7,4.3.7,6.3,1.3.7.2,1.2,1.3,1.8,2-.9.4-1.9,1.2-2.8,1.1-1.4-.2-2.6-1.2-4-1.5-3.6-.7-7.3-1.3-10.9-1.8a15.06,15.06,0,0,0-3,.1c.2,1,.1,2.4.7,3.1,3.3,3.6,6.6,7.1,12.4,4,2.4-1.2,8.3,2.6,7.6,4.6-1.8,4.9,1.6,5.2,4.6,5.1,4.1-.1,3.4,2.9,3.1,4.7s-2.2,3.6-3.5,5.3c-.8-1.5-1.7-3-2.6-4.4-1.1-1.8-2.3-3.6-3.5-5.4-.7,1.7-1.3,3.5-2,5.2l-.7.7c-.6-1.7-.8-3.7-1.9-5.1a13.72,13.72,0,0,0-5.2-4c-.6-.2-2.2,2-3.3,3.1a17.35,17.35,0,0,0-2.5,2.1,5.17,5.17,0,0,0-1.5,2.8c.3,3.3.9,6.5,1.5,9.8.8,5.2,3.4,6.4,7.6,3.7.6-.4,2.3-.5,2.5-.1a10.05,10.05,0,0,1,.7,3.1c-3.4.4-8.7,2.3-9.8.9-4.6-5.6-12-8.8-14.5-16.2-.4-1.2-1.9-2.3-3.2-3a53.59,53.59,0,0,0-5.7-1.7c.1,2.2-.4,4.8.5,6.5,5,9.6,12.7,17.4,22.7,20.4,6.6,1.9,5.2,4.7,4.5,8.4-.8,4.1.5,4.8,4.1,3.6.8-.2,2.8.8,2.8,1.3,0,5.4,3.3,6.1,7.7,6.1,1.2,0,3.3,1.4,3.4,2.4a6.77,6.77,0,0,1-1.6,4.9c-.7.8-2.9-.1-4.2.5-7.2,3.4-7.2,3.4-13-2.3-.2-.2-.6-.4-.7-.7-1.2-1.9-2.7-3.7-3.5-5.8-1.1-2.8-6-5.4-7.3-3.4-2.1,3.3-2.8.5-3-.6a11.49,11.49,0,0,1,.2-5.2c.9-4.8-4.5-11.4-9.1-10.3-4.3,1-7.6,2.8-12.7-.3-3.3-2-5.4-1.8-4.5-6.3.3-1.4-1.9-3.3-3-4.9-.5,1.5-1,3.1-1.6,4.5-1.1,2.4,1.5,7.5-4.7,6.4-.3-.1-1.8,3.9-1.5,4.1,2,1.4,5.1,3.7,6.6,3.1,4.6-2.1,7.3-1.1,10.1,2.8,1.1,1.6,3.4,2.7,5.4,3.4a7.07,7.07,0,0,0,4.7-.5c.9-.4,1.4-1.7,2.1-2.6.4,1.3,1.1,2.5,1.1,3.8.1,2.3.4,4.7-.2,6.9-.9,3.8.2,6,3.8,7.4,1,.4,2.3,2.3,2.1,3.1-1.1,3.9,1.7,4.1,3.4,3,4.4-2.9,6.3,1.2,6.3,3.1.2,4.2,3.1,9.1-1.8,13-1.5,1.2-1.8,4.1-2.2,6.3-.2,1.1.7,2.3,1,3.5a30.84,30.84,0,0,0,2.7-2.4c4.6-5.1,7.3-13.1,16.7-10.8a19.27,19.27,0,0,0,2.4.1,10.47,10.47,0,0,1-1.4,2.8c-1.3,1.4-3,2.5-4.2,4a2.52,2.52,0,0,0,.4,2.6c.5.5,2.3.8,2.6.4,3.6-4.4,8.2-3,12.8-2.7,1.1.1,2.3-.9,3.4-1.4a26,26,0,0,0-3.3-2.5c-1.2-.6-2.6-.6-3.8-1.1-.4-.1-.6-.7-.9-1a3.92,3.92,0,0,1,1-.8c1.1-.8,2.3-1.6,3.4-2.5a32.89,32.89,0,0,1-4.4-2.8,12.12,12.12,0,0,1-2.2-3.2c2-.6,4.3-2.1,6-1.6,3.3.9,7.9,1,7.7,6.6,0,1.1,2.1,2.3,3.4,3.3a8.27,8.27,0,0,0,2.9,2.1c2.9.7,5.9,1.1,8.8,1.7-.1-2-.4-4-.4-5.9a29,29,0,0,1,.6-4.1c1.7.5,3.7.7,5.1,1.7,1,.8,1.1,2.7,1.5,4.2C115,465.2,117,473.1,119,481Z" transform="translate(192.1 192.2)"/><path class="b" d="M327-192c.3,13.1.8,26.2.9,39.3,0,4.4.5,8.3,3.6,11.5,2.3,2.4,1.8,4.2-.9,6-5.5,3.7-10.8,7.7-16.3,11.5-3,2-3.4,4.1-1.1,7a121.39,121.39,0,0,1,7.5,11.2c.4.7-.5,3.3-1,3.4-5.6.3-4.8,6.7-8.5,8.8-1.4.8-2.1,2.8-3.2,4.2a1.42,1.42,0,0,1-.4.2c.9,7.6-6.5,4.6-9.4,7.3l-.7-.7c1.2-6.5,2.2-13,3.8-19.4,1-3.9-.2-5.8-3.8-7.3-25.9-10.6-50-24.6-74.4-38.2a19.24,19.24,0,0,1-8.4-9.4c-.9-1.9-3.1-3.4-5-4.4-1.7-.8-3.9-.7-5.9-1-10.9-1.7-18.1-8.4-22.2-17.9-1.5-3.4.1-8.1.2-12.2Q254.55-192,327-192Z" transform="translate(192.1 192.2)"/><path class="b" d="M481-162c-2.8.1-4.1-.6-3.8-4.1.2-2-1.9-4.3-2.9-6.4-1.3,2-3,3.9-3.8,6.1-.4,1.1.9,2.8.9,4.3a4.09,4.09,0,0,1-1.3,2.3c-4.3-1-7.3,1.5-10.8,3.4-5.6,3-6.6,2.3-8.2-3.8a11.63,11.63,0,0,0-2.6-5.2c-.7-.8-3.3-.9-4-.2s-.9,2.8-.5,4.1c.9,2.9,2.2,5.6,3.3,8.3l-.6.6c-2.5-3.3-5.5-2.5-8.4-.7-3.5,2.1-6.4,4.1-11.3,1.8-2.6-1.2-7,1.4-10.6,2.3-1.1.3-2.7,1.3-3.3.9-4.8-3.5-9.5-1.2-13.7.6-3.1,1.3-2.1-.2-2.4-1.7a45.8,45.8,0,0,0-1.5-4.9,24.33,24.33,0,0,0-4.7,2.8,16.27,16.27,0,0,0-3.3,4.9c-2,4.7-6.8,6.3-10,9.7-.5.6-1.3,1.1-1.5,1.8-.9,2.4-1.1,6.1-4,.8-1.2-2.3-3.7-2.1-4.8.9-1.5,4-3.2,6.2-8.6,5.8-3.3-.3-7.4,3.1-10.3,5.7-3.2,2.8-5,7.8-10.9,5.3-.7-.3-2.4.9-3.3,1.8a39.15,39.15,0,0,0-3.7,4.4c-2.9-2.6-8.1-.7-10-5.8-1-2.8-1.2-3.9,1.3-5.5,5.4-3.6,10.5-7.6,16-11.2,3.7-2.4,4.2-5.1,1.3-8.2-4.4-4.7-5.6-10.1-5.3-16.5.5-11.5.2-23,.3-34.5q71.7,0,143.5-.1c3,0,3.7.6,3.6,3.6C480.8-179.7,481-170.8,481-162Z" transform="translate(192.1 192.2)"/><path class="b" d="M-192,109c4.2-3.9,8.1-2.7,13.3-.8a67,67,0,0,0,23.1,4.2c2.8.1,7.8-2.5,8.8-7.8,1-5.6,4.7-7.2,10.3-6.4,1.8.3,5.1-1.2,5.9-2.8,4.1-8.3,9-8,15.5-1,3.8,4.2,8.5,6.4,13.5,8.5,1.9.8,4,2,5,3.6,2.9,4.6,5.3,9.5,7.9,14.2.3.6.8,1.4,1.3,1.5,6.1.9,3.7,5.1,4.2,8.9.9,7.6-3.4,13.6-4.7,20.4-.7,3.9-2.4,3.9-5.3,1.6-14-11.5-28.2-22.8-42.3-34.2a29.19,29.19,0,0,0-2.8-2.1c-3.7-2.6-6-1.7-6.3,2.7-.4,4.6-.2,9.2-.5,13.8a10,10,0,0,1-1.4,3.6c-3.3,6-5.8,12.1-4.4,19.2.3,1.4-1.5,3.7-2.9,4.8-5.7,4.5-10.8,9.2-11.9,16.9a3.12,3.12,0,0,1-.6,1.3c-6.7-.9-6.9,8.8-14.3,8.4-2.9-.2-6.1,5.7-9.2,8.9a26.93,26.93,0,0,0-2,2.7C-192,169-192,139-192,109Z" transform="translate(192.1 192.2)"/><path class="a" d="M481-120c-3.5.6-6.2-.5-7.9-3.7-1.2-2.2-2.4-2.4-4.8-1.3-2.6,1.1-7.5,5.7-7.1-2.9.1-1.3-4.3-2.8-6.7-4.1a5.73,5.73,0,0,0-1.4-.4l1.5-.6a50.63,50.63,0,0,0,6.6-2.1,4.13,4.13,0,0,0,1.5-3.3c-.1-.7-2.2-1.8-3-1.5-4,1.4-8.3,2.5-11.6,4.9-3.8,2.8-6.3,7.2-9.8,10.4-5.1,4.8-8.9,11.4-16.9,12.1-14.4,1.2-28.7,2.5-43.1,3.6-3.5.3-7.8-1.1-6.8,5.3.3,2.2-6.1,4.4-9.5,3.4-3.9-1.1-7.8-2.5-11.7-3.7-.6-.2-1.7-.2-1.9.1-1.5,2.9-3.5,1.5-5.7,1-2.6-.6-4.9-.3-3.9,3.5a12.9,12.9,0,0,1,0,3.4c-.5-.8-.9-1.8-1.6-2.2-3.4-2.2-11.6,1.6-13.9,6.2-.4.7-1.8,1.8-2,1.6-3.1-1.9-4.4.4-5.4,2.4s-1.4,4.4-2.2,6.6a1.2,1.2,0,0,1-.9.8,1.64,1.64,0,0,1-1.2-.7c-.4-1.7-1.4-3.9-.8-5.2,1.4-2.9,3.9-5.1,5.5-8,2.8-5,10-6.8,9.9-13.9,0-.3,1.7-.9,1.8-.7,3.3,3.8,4.8.8,6.3-1.7s3-3.1,6.3-3c2.6.1,5.6-3.2,8.2-5.2s5.3-4.3,8-6.4c.5-.4,1.5-.8,1.8-.6,6.5,3.9,7.4-2.7,10.4-5.4a1.72,1.72,0,0,1,1.8-.2c1,.8,2.2,2.9,2.6,2.7a18.26,18.26,0,0,0,4.2-3.1c1.2-1.1,2.1-2.7,3.4-3.4,5.5-2.9,6.9-8.9,10.6-13.2a34.46,34.46,0,0,1,2.6-2.8,11.49,11.49,0,0,1,.7,3.6c-.1,4.2,1.6,3.7,4.9,2.9,4.2-1,8.3-4.9,13.2-1.1.9.7,3.6-.2,5-1.1,3.5-2.4,6.7-4.5,11.2-1.7,1.4.9,4.4.2,6.2-.6,3.6-1.7,6.7-4.4,10.9-1,.9.7,3.2,0,4.7-.7,4.9-2.1,9.7-4.6,14.6-6.6,1.1-.4,2.6.3,3.9.4s3.2.2,3.3-.3c1.9-5.1,5.2-2.4,8.2-1.6C481-146,481-133,481-120Z" transform="translate(192.1 192.2)"/><path class="b" d="M-192,86c19.1-.3,38.2-.6,57.2-.8,1.1,0,2.3.7,3.4,1-2,1.9-5.3,5.8-5.9,5.4-6.1-3.7-9.7,4.1-15.2,3-.5-.1-2.1,5.9-3.3,8.9-.5,1.2-1.6,3.3-2.1,3.2a166.06,166.06,0,0,1-18.4-3.6c-1.1-.3-2.7-2.9-2.4-4,1.8-6.1-3.4-6-6.4-7.5-3.6-1.8-4.4,1.6-5.7,3.8a8.7,8.7,0,0,1-1.3,1.5C-192,93.3-192,89.7-192,86Z" transform="translate(192.1 192.2)"/><path class="b" d="M48.1,200.1a11.67,11.67,0,0,1-2.4,2.1c-4.6,1.9-5.2,6-1.5,9.5a8.42,8.42,0,0,1,2.6,4.9c1,7.8,1.3,15.6,2.4,23.3.3,2.4,2,4.9,3.6,6.8,2.5,3,5.6,5.6,8.4,8.5a5,5,0,0,1-1,7.9c-.7.4-3.1-.4-3.3-1.1-1.8-5.6-6.3-8.5-10.9-11.3-2-1.2-3.8-2.7-5.9-3.6-1.1-.5-2.6-.3-4-.4,0,1.6-.8,4.1,0,4.8a41.94,41.94,0,0,0,9.9,6.9c2.7,1.3,3.5,1.9,2.5,5.1-.6,2.2,9.2,7.8,11.8,6.8,2.9-1.1,3.4-1.5,2.8,2.4-.5,3.1,1.6,6.7,3,9.9.9,2.1,2.7,3.4.9,6.3-.8,1.2,1.3,4.3,2.1,6.5.5,1.3,1.1,2.5,1.6,3.8-1.1-.5-2.7-.6-3.2-1.5-2.1-3.5-8.8-4.6-5.7-11.1.6-1.3-1.2-4.1-2.5-5.7-1-1.2-2.9-1.7-4.4-2.6-.2,1.5-.3,3-.5,4.6-.1,1-.1,1.9-.2,2.9-.1,1.4-.3,2.7-.5,4.1-1.3-1.1-3.2-1.9-3.8-3.3-2.1-4.8-5.2-8-10.7-8.4a14.26,14.26,0,0,1-2.7-.9c.6-.7,1.5-1.2,1.8-2a37.35,37.35,0,0,0,.9-4.6c-1.5-.2-2.9-.3-4.4-.6a8.38,8.38,0,0,1-3-1.1,26.06,26.06,0,0,1-3.1-2.7,35.93,35.93,0,0,0-1.7,3.4,31.8,31.8,0,0,1-1,3.3c-.8,1.7-1.9,2.6-2.9.1-1.8-4.4-3.5-8.8-5.1-13.3-.9-2.6-4.8-4.9-7.2-3.5-.8.5-1.8,2.3-1.4,3,1.2,2.8,3.1,5.4,4.4,8.2.6,1.2.3,2.7.4,4.1-1.7-.8-4.4-1.2-4.8-2.5-1-2.7-.4-6.3-5.1-5.7-.2,0-.7-1.3-1-2.1a66.1,66.1,0,0,1-2.8-7.4c-.8-2.7-1.2-5.6-1.8-8.4-.2-1-.4-2.1-.7-3.1a13.81,13.81,0,0,0-2.9,1.7,11.09,11.09,0,0,0-1.7,3c-1.3,2.6-1.1,2.2-3.6,1.2-1.7-.7-3.9-.1-5.8-.1.1,1.4-.1,3.1.5,4.3,2.2,4.6-1.5,5.8-4.2,7.5-3.1,2-4.6-.2-5.8-2.6-4.6-9.2-2.3-17.2,6.7-21.4,5.2-2.5,6.2-6.6,6.9-11.4.5-3.6,1.3-6.7,5.7-7.8,1.2-.3,2.8-2.8,2.6-4.1-.7-5.9,2.3-9.6,6.1-13.4,8.7-8.8,8.5-8.9-.3-17.4-1.9-1.9-4-3.6-5.7-5.6-2.7-3.1-5.1-2.6-7.3.4-1.9,2.5-3,3.6-6.9,2.1-4.2-1.6-6.6-3.1-9.3-7.1-2.8-4.3-8.2-8-14.7-6.3-4.6,1.3-7.2-1.7-9.7-4.5-.7-.8-.6-3.2.1-4.4,4.5-7.5,4-9.4-2-15.3-6.3-6.2-13.7-9-22.4-9.1-.7,0-2.1-2.1-1.9-2.9,1-4.4,1-8.1-3.2-11.1-.9-.7-.4-3.2-.7-4.9-.3-1.4-.6-3.8-1.4-4-4.3-1.1-5-4.2-5.1-7.8-.2-6.8-2.3-8.7-9.3-8.1-2.7.2-6,1.8-8,.7-3.6-1.9-6.4-5.2-9.6-7.9,1.2-.5,2.4-1.3,3.6-1.3,12.5-.2,25,0,37.5-.3q44.7-1.35,89.2-3c23.4-.9,46.9-1.9,70.3-2.9,8.1-.3,16.3-.6,24.4-1,3.2-.2,4.4,1,4.7,4.2q5,50.85,10.1,101.7c1.9,19.2,4,38.3,5.9,57.5.3,3.5,1.7,4.9,5.4,4.8,14.6-.5,29.3-.7,43.9-1.1,2.4-.1,4.7-.4,4.8,3.2,0,.7,1.6,1.4,2.5,2.1a15,15,0,0,0,1.6,1c-3.2,5.9,1.8,5.5,5,6.5.1,0,.4.3.4.3-1.3,3.1-2.4,6.2-3.9,9.2-.4.9-1.9,1.9-2.7,1.7-5-.9-8.2,1.5-7.9,6.1.4,5.5-.7,10.1-6.1,13.3a8.15,8.15,0,0,0-3.3,6.4c.4,4.1-1.8,4.4-4.6,4.8-5.8.9-11.6,1.5-17.2,2.7-2.9.6-5.4,2.7-8.2,3.6-3.3,1-6.8,1.2-10.1,2.1-2.4.7-4.5,2-6.9,3-.4.2-1-.2-1.5-.3-.1,0,.3-.7.1-.9-1-2.3-2.1-4.6-3.2-6.9,2.4-.4,5.3-.2,7.1-1.4,2.1-1.4,3.5-4,4.8-6.3.5-.8.2-3.1-.3-3.3a5.78,5.78,0,0,0-4.1-.2c-.9.3-1.3,2.1-2.3,2.5a31,31,0,0,1-6,1.5,19.54,19.54,0,0,1,3.2-3.8c1.7-1.2,3.9-1.5,5.5-2.8s2.6-3.3,3.9-4.9c-1.6-.5-3.1-1.6-4.6-1.5-4.1.3-8.2,1-12.2,1.7a2.62,2.62,0,0,0-1.3.6c-.8.8-1.6,1.7-2.4,2.5-.2-.8-.7-1.8-.4-2.4.7-1.4,1.5-3,2.7-3.6s2.9-.1,4.4-.2c3.7-.3,7.1-.9,6.4-6a3.68,3.68,0,0,1,.8-2.1,32.17,32.17,0,0,1,2.4-2.8c-1.3-.4-2.7-1.1-4-1-2.5.2-4.9.9-7.4,1.3-.3.1-1.3-.9-1.2-1.1.9-2.3,2.3-4.4,2.9-6.7.5-1.7.1-3.6.1-5.4-1.6.6-3.5.9-4.6,2-1.8,1.9-2.7,4-3.8-.6-.4-1.6-3.1-2.8-4.9-3.9-.3-.2-1.9.6-1.8.8,1,5.2-7.7,7.6-3.9,13.6.2.2-.3.8-.4,1.3-.4-.2-1-.3-1.3-.7-2.6-3.1-7.4-3.5-8.6-8.8-.7-2.9-5.4-5-8.4-7.4-.3-.3-1,0-1.4-.2-1.3-.4-1.1,5-2.8,1-.6-1.5-5.5-4.4-.1-6.7.7-.3.8-2.3,1-3.5.4-3.4,4-5.8,6.9-4,3.5,2.1,4.8-.5,6.4-2.5s2-3.8-1.2-4.9c-.8-.3-1-2.5-1.4-3.8a8.94,8.94,0,0,0,2.3,1.3,49.8,49.8,0,0,0,8.4,2.3c.9.1,2.9-1.2,2.9-1.9a51,51,0,0,0-.4-7.8c-1.1.3-2.1,1-3.2.9s-2.8-.9-2.8-1.4c-.2-4.2-1.8-8.4,0-12.6a4.81,4.81,0,0,0,0-3.9,17.29,17.29,0,0,1-3-7.7c0-.5-2.4-.9-3.7-1.3-1.1-.4-2.1-.8-3.2-1.3a9.48,9.48,0,0,1,2-2c1.2-.7,2.6-1.1,3.9-1.7,2.8-1.4,5.5-2.9,2.9-6.8-.6-.9-.6-2.1-1-3.2-.7-2.5-1.9-3.7-3.9-1.1-1.4,1.9-1.1,1.2-1.9-.6-1.9-4.5.6-8.3.9-12.4.1-2.1.3-4.4,3.6-3.1.2.1,2.1-2.5,1.9-2.8-2.9-3.7-6.5-7-4.5-12.5-2.4-.5-5-1.6-7.3-1.2-1,.2-2.2,3.3-2.1,5.1.2,2.4,2.6,4.9-.3,7.1a1.91,1.91,0,0,1-1.9-.4c-1.3-2.4-3.3-4.9-3.3-7.4,0-3.4,1.5-6.8,2.6-10.1.1-.2,2.2.3,3.3.2.8-.1,2.1-.8,2.1-1.3.1-3.1,5.2-5.2,1.7-8.9-.1-.1.8-1,1.3-1.5.8-1,2.2-2,2.2-2.9-.3-4.6,2.2-4.3,5.4-3.9,2.1.3,4.2-.1,6.3-.1,1.8,0,4.5-.5,5.2.5,3.4,4.3,6.6-.7,9.8,0a4.56,4.56,0,0,0,1.1-2.7c-.1-.8-1.3-2.1-2-2-4.5.1-9-3.5-13.5-.3-.4-.6-1.1-1.3-1-1.7,2.7-7.4,5.9-8.7,13-5.7,1.4.6,3.3-.1,4.9-.3a24,24,0,0,0-2.5-3.7A14.63,14.63,0,0,0,110,106c-.3-.3-.8-.9-.7-1.1,1.6-2.6,3.6-5.1,4.8-7.9.7-1.6.1-3.7.1-5.6-1.4.8-3,1.4-4.1,2.6s-1.7,3.4-3,4.5-3,1.4-4.5,2a33.11,33.11,0,0,1-1.2-4.2,33.81,33.81,0,0,1-.1-4.5c-1.4.8-2.9,1.6-4.2,2.5-.5.3-1.1,1.4-1.2,1.3-5.5-2.3-6.8,3-9.1,5.5-1.4,1.5-1.7,5.1-1.1,7.4,1.2,4.5-2.9,10.8-7.5,10.1-.8-.1-1.3-2.4-2-3.6-1-1.7,1.9-6-2.8-5.2-3,.6-6.9,1.5-4.5,6.7,1,2.3,1.2,5.3-3.7,3.7-2.8-.9-6.3.6-9.5,1.1.2,1,.1,2.1.6,2.9a33.07,33.07,0,0,0,3.2,3.3,41.72,41.72,0,0,1-4.6,2.6c-2.2,1-4.6,1.6-6.7,2.7a2.52,2.52,0,0,0-.5,2.5c.9,1.4,2.5,2.3,3.3,3.7.7,1.2.7,2.8,1,4.2a24.05,24.05,0,0,0-2.4-2.1,91.21,91.21,0,0,0-9.7-5.3c-1.1-.5-4,.1-4.1.4-.1,2.2.1,6.4.4,6.4,4.8.1,2.2,3.1,1.9,4.8-.1.9-1.5,1.6-1.5,2.5-.1,1.4.5,2.7.8,4.1a15.39,15.39,0,0,0,3.1-1.7,10.45,10.45,0,0,0,1.5-2,12.16,12.16,0,0,1,1.7-1.5c.2.8.7,1.8.4,2.2-2.7,3.4-1.7,4.9,2.4,5.3a4.29,4.29,0,0,1,2.4,1.6,21.36,21.36,0,0,1,2,3.2,20.54,20.54,0,0,1-3.4-.7c-4.2-1.8-2.8,1.5-3.1,3.3l-.1.1c-2.6-.2-5.1-.3-7.7-.5,2,2.6,4,5.2,6.1,7.6,1,1.2,2.4,2.1,3.3,3.3a7.94,7.94,0,0,1,1,2.7H44.3a18.61,18.61,0,0,0-3.4.4c-.9.4-2.4,1.3-2.4,1.9a4,4,0,0,0,1.7,3.2c2.8,1.5,5.6,2.1,3.5,6.6-1,2.1,0,5.5.8,8,.3,1,2.4,1.6,3.7,2.3C47.8,199.8,48.1,200.1,48.1,200.1Z" transform="translate(192.1 192.2)"/><path class="b" d="M296.7-15.2c-1.3,6.8-2.7,13.6-3.9,20.5a49.27,49.27,0,0,0-.5,5.4c-.2,2.5-1.1,3.7-3.9,2.6-.9-.4-2.2.2-3.3.3.3,1.4.1,3.2.9,4.2,1.8,2.5,1.8,5.3-1.1,6.1-4.3,1.1-3.3,2.5-1.3,5.1.8,1.1-.1,3.3.4,4.8,2.7,7.8-1,13.8-4.5,20.3-1.6,3.1-.5,8,.5,11.9s-.3,8.2-4.1,10.2c-1.2.6-2,2-2.9,3.1-.6.7-.8,2.2-1.4,2.3-4.3.8-6.6,2.9-6.1,7.5,0,.2-1.5.7-2.3,1-4.8,1.2-5.9,3.5-4.2,8.3.3.8-.7,2.6-1.6,3.3-5.7,4.3-5.9,4.8-3,10.5a2.25,2.25,0,0,1-.3,2.1c-.8.7-2.3,1.7-2.8,1.4-4-2.2-5.4.7-6,3.4-1,4.3-3.3,5.4-7.4,5.1-1.5-.1-3,1.2-4.5,1.9,1.1,1.1,2.5,2,3.3,3.3.6.9.9,2.7.4,3.4-1.3,2-3.3,3.6-4.8,5.6-1.2,1.7-2.9,3.6-2.9,5.5-.2,3.7-1,6.2-4.9,7.6-.9.3-1.9,3.6-1.3,4.8,1.8,3.4.2,4.5-2.4,6.3s-4.4,4.4-6.8,6.4c-1.2,1-3,1.3-4.6,1.9-.4-1.4-1.5-3-1.2-4.1,1.4-4.2,3.6-8.2,4.9-12.4,2.3-7.3-1.7-12.4-9.4-12.4a7.43,7.43,0,0,1-4.2-.9c-4.4-3-8-3.1-11.7.8-2.4,2.5-3.8.5-3.6-.8.9-7.6-5.7-9.1-9.9-10.3-5.8-1.7-8.3-6.7-12.7-9.5-3.1-2-5.4-5.3-8.1-8.1-.8-.8-1.6-2.1-2.5-2.4-7.8-1.7-5.5-7.7-4.7-12.2.7-3.7.2-6.4-2.4-9-.7-.7-1.5-2.3-1.2-2.7,5.9-8.5,11.9-17.1,18.1-25.3,1.1-1.4,3.6-2,5.6-2.6,5.2-1.6,10.6-2.7,15.5-4.9,1.5-.7,2.6-4.3,2.4-6.5-.3-3.8.1-5.9,4.1-7.7,3.5-1.5,5.9-5.2,9-7.6a73.93,73.93,0,0,1,6.6-4.2c2.7-1.7,5.3-3.7,8.1-5.3a37.3,37.3,0,0,1,6.9-3.5c6-1.9,7.7-7.1,3.7-11.9a37.05,37.05,0,0,0-2.9-2.7c-8-7.3-16.2-14.3-21-24.4-.6-1.3-2.9-3-4.1-2.8-5.2,1.1-5.5-2.1-5.8-5.7-.3-4.6.1-9.5-4.4-12.6a11.2,11.2,0,0,0-4.8-2c-5.2-.5-6.8-2.8-5.9-8.2.4-2.3,0-4.7,0-7.1,0-3.1-1.4-6.8,3.8-7.6a6.42,6.42,0,0,0,4-3.4c1.5-3.5,1.5-7.6,5.1-10.2.4-.3.1-1.9-.2-2.8a17.36,17.36,0,0,0-1.5-2.6c-6.8-10.9-6.8-10.9,3.1-18.8,3-2.4,5.6-4.6,6.3-9,.5-2.8,4.1-5,5.6-7.9,2.1-4,2.9-8.6,5.4-12.3a59.62,59.62,0,0,1,10-10.7c.7-.6,3.4.4,4.8,1.2,17.4,9.4,34.8,19,52.3,28.2,6.3,3.3,13.1,5.8,19.5,9,1.6.8,3.3,3.5,3.1,5.1-.6,4.9-2.1,9.7-3.2,14.5-1.3,5.6-2.5,11.3-3.9,16.9a44.44,44.44,0,0,1-2.1,7.1c-.4.9-1.7,1.4-2.6,2-.1-1,0-2-.2-3-.2-1.5-.5-2.9-.8-4.4-1.4.8-3.1,1.4-4.2,2.6a77,77,0,0,0-5.7,7.1,12.16,12.16,0,0,0-2.2,3.8c-1.6,4.5-2.9,9-4.6,13.5-.3.8-1.7,1.2-2.6,1.7-1.6.8-3.4,1.2-4.8,2.3-.9.7-1.1,2.3-1.6,3.5,1.3.2,3.1,1,3.9.4,2.1-1.4,3.1-1,4.9.8,2.8,2.7,5.7,5.1,10.5,2.4a8.63,8.63,0,0,1,9.5,1,10.75,10.75,0,0,0,4.4,2.2C295.3-23.9,297.6-20.8,296.7-15.2Z" transform="translate(192.1 192.2)"/><path class="b" d="M181.3,240.1c-13.1,0-26.2-.1-39.4.1-3.8.1-5.2-1-5.6-4.8-1.3-14.2-2.9-28.4-4.4-42.6-1.9-18.5-3.9-37-5.7-55.5-2-19.3-4.5-38.7-5.4-58-.3-6.4,4-13.3,10.3-16.5a16.74,16.74,0,0,1,17.1,1,2.55,2.55,0,0,1,.4,2.1c-2.2,4.5-4.4,8.9-6.8,13.2a9.17,9.17,0,0,1-2.9,2.6c-4.5,3.2-4.6,8.3-1.1,12.3,1.5,1.7,2.6,5.3,1.8,6.9-4.4,8.7,2.1,13.9,5.7,20.1,2.1,3.6,5,5.6,8.7,7.9,3.4,2.1,6,9.6,5.1,13.9-2.1,10.9,0,19.3,8.6,26.3a8.15,8.15,0,0,1,2.4,5.1c.5,9.1,8.6,20.6,17.2,23.7a13.32,13.32,0,0,0,1.9.5c1.9.2,5-.3,5.5.6,1.3,2.4,1.5,5.4,1.9,8.2.1.4-.9,1.1-1.6,1.4-2,1-4.1,1.9-6.1,2.7-4.2,1.7-6.5,3.5-.2,5.7a2.81,2.81,0,0,1-.1,2c-1.3,2.5-2.7,4.8-4,7.3-.3.5,0,1.2,0,1.9a7.8,7.8,0,0,0,2.2-.4c2.8-1.5,5.5-4.9,8.2.2.1.2,1.4-.1,2-.4,2.5-1.5,2.5-.5,2.5,1.9.2,9.3.3,9.3-9.2,9.4h-9C181.3,239.4,181.3,239.7,181.3,240.1Z" transform="translate(192.1 192.2)"/><path class="b" d="M351.2-99.2c4.6.6,9.1,1.6,13.7,1.7,2.2,0,4.5-1.5,6.6-2.5,3.8-1.7,7.4-4.1,11.3-5.3s8.1-1.1,12.2-1.6c9.2-1.1,18.5-1.9,27.7-3.4,7.9-1.3,12.5-7.6,17.4-13.2.9-1,1.4-2.3,2.3-3.2a13.09,13.09,0,0,1,2.7-1.9c-.1,1-.2,2-.4,3-.9,4.1-6.3,10.1-10.2,12.2-1.4.7-2.3,2.3-3.4,3.5s-2.3,2.6-3.4,4c-.7.9-1.9,2.1-1.7,2.9a3.64,3.64,0,0,0,2.8,1.9c4.3-.3,8.6-.9,12.8-1.6,1-.2,2.5-.9,2.8-1.7,2.2-7.6,7.7-11,15-12.5a7.82,7.82,0,0,0,3.5-1.8c3.6-3.5,5.7-3.8,11-.7,8.5,5.1,1.4,4.6-1.1,6.2-7.2,4.5-14.4,8.9-21.6,13.5-1.9,1.2-3.2,2.5-5.3-.1-1-1.1-4-1-6-.6-.6.1-.7,2.8-1.2,4.2s-1,3.1-2,3.6c-3.8,2-7.1,5-12.4,2.4-1.4-.7-7.8-2.1-9.6,3.2a2.21,2.21,0,0,1-2,1.1c-3.6-.9-6.2-.6-6.1,4-1.1,0-2.2-.2-3.3-.1-1.8.1-4.8-.4-5.3.5-1.7,3.1-4.3,2.5-6.8,2.7a6.47,6.47,0,0,0-3.6,1.2c-2.8,2.6-5.6,2.9-9.1,1.2-1.8-.9-4.9-2.3-3.3,2.3,0,.1-1.9,1.3-2.6,1.1-2.9-1.1-4.7.2-7.3,1.5-8.2,3.9-15.8,10.2-25.9,8.8-1.6-.2-3.4.9-5.1,1.5-2.2.8-4.2,2.2-6.4,2.4-3.5.4-7.2-.1-7.5,5,0,.3-1.1.9-1.3.7a5.24,5.24,0,0,1-2-1.9c-2.9-6.2-13.3-7.7-17.4-2.4a2.75,2.75,0,0,0-.2,2.2c.8,3.1-1,4.1-3.5,4.9-2.8.8-4.6-.1-5.5-2.7-1.2-3.5-1.3-6.7,1.6-9.7,1.6-1.6,3.6-3.6,3.9-5.7.7-5.9,6-7,9.4-10.1.6-.6,1.9-.4,2.9-.5,2.9-.3,7,4.6,8.3-2.1,5.5,2.7,4.6-1.3,4.7-4.4,0-.2.8-.6,1-.5,3.1,1.6,2.9-.7,3-2.5.1-4.6,2.9-6.5,7-7,.9-.1,2.1,1,3,1.8.7.6.9,2.1,1.6,2.3,1.6.3,4.3.7,4.7,0,2.1-4,10-.3,9.4-7.3C350.9-98.9,351.1-99.1,351.2-99.2Z" transform="translate(192.1 192.2)"/><path class="b" d="M114.8,369.9c.8-3.3,1.4-6.3,5.2-8,2.1-.9,3-3.3.9-5.8-.8-.9-.5-2.7-.7-4.1a13.28,13.28,0,0,0,3.9.4c1.7-.2,3.7-.5,4.9-1.5,1.5-1.4.1-5,3.6-5.2a2.42,2.42,0,0,0,.2-1.8c-2.4-4.2.3-6.2,3.4-8.2a12.89,12.89,0,0,0,2.8-3.3c1-1.4,1.8-3.1,2.9-4.4,1.7-1.9,2.9-3.5.4-5.9-1.1-1.1-1.4-3-2.3-4.4-1.9-2.7-1.5-3.9,2-3.8.6,0,1.4-.7,1.9-1.3,1.2-1.4,2.1-4,3.5-4.4a110.48,110.48,0,0,1,16.2-2.1c.3,0,1.6,2.9,1.1,3.8a9.55,9.55,0,0,1-3.9,4.5c-3.6,2-4.9,4.3-2.4,8a2.18,2.18,0,0,1-.4,1.7c-2.7,4-5.7,7.7-8,11.8-1.8,3.4-2.6,7.3-4.2,10.9-1.7,3.8-3.8,7.4-5.8,10.9-2.6,4.5-5.3,8.9-8.2,13.2-3.2,4.8-6.5,9.6-10,14.2-4.5,5.7-6,12.3-5.7,19.2.2,5-2.7,10.1.5,15,.2.4-.8,1.6-1.2,2.4a10.71,10.71,0,0,1-1.8-1.9c-1.1-2-2-4.2-3.2-6.1-1.1-1.7-2.2-2.9.6-4.3.6-.3.6-4.1,0-4.4-5.2-2.1-2-4.3-.1-6,1.7-1.5,2.3-2.5.5-4.4-2.3-2.4-1.3-4.2,1.5-5.8a8.59,8.59,0,0,0,3.1-3.9,112.78,112.78,0,0,0,3.4-11.3,30.83,30.83,0,0,0,.3-5.3c-1.4.6-2.9,1.2-4.3,1.8C115.2,370.2,115,370,114.8,369.9Z" transform="translate(192.1 192.2)"/><path class="a" d="M167.7,308.3c.4-.8.9-2.6,1.7-2.8,4.2-1.1,4-3.8,3.7-7.3-.3-3.2-.5-7.1,4.4-7.9.8-.1,1.6-1.6,2-2.7,1.4-3.7,2.7-7.5,4-11.3a31.29,31.29,0,0,0,1-4.4c1,2.1,3,4.4,2.6,6.3-1,5.6-1.9,11.7-4.6,16.5-3.2,5.8-8.3,10.5-12.6,15.7a4.36,4.36,0,0,1-1.7.7C168.1,310.5,168,309.7,167.7,308.3Z" transform="translate(192.1 192.2)"/><path class="a" d="M399.1-76.9c-8.4,4-16.8,8.1-25.3,11.9-1.4.6-3.5-.4-5.3-.4a21.53,21.53,0,0,0-5.1.4c-3.2.8-6.2,1.9-9.3,2.9l-.1.1c2.9-1.9,5.5-4.3,8.6-5.5,4.1-1.5,7.7-6,12.8-2.6,2.8-3.8,7.9-1.7,10.8-4,4-3.2,8.3-2.5,12.6-3C398.8-77.2,399.1-76.9,399.1-76.9Z" transform="translate(192.1 192.2)"/><path class="a" d="M434.3-103.8c-1.1-.3-2.3-.5-3.4-.8,1.2-2.1,2.2-5.8,3.7-6,6.7-.9,8-8.8,14.1-10a26.45,26.45,0,0,1,3.8-.5c-.4,1.2-.5,2.6-1.3,3.4-2.2,2.4-4.7,4.5-7,6.7-.6.6-1.5,1.2-1.5,1.8C442.9-102.6,437.7-105,434.3-103.8Z" transform="translate(192.1 192.2)"/><path class="b" d="M281.3-56.5c2.1,2.1,4.7,3.6,4.6,4.7-.3,2.5-1.9,6.7-3.2,6.8-4.4.2-6,3.6-8.7,5.7a10,10,0,0,1-2.6.9,26.61,26.61,0,0,1,.3-2.8c1-3.3,1.6-6.8,3.3-9.8C276.1-53.1,278.7-54.4,281.3-56.5Z" transform="translate(192.1 192.2)"/><path class="a" d="M60.2,358.6c-3.1,0-6.3.5-9.2-.2-2-.4-5.7-1.1-3.3-5.2.6-1,.2-3.7-.5-4.1-2.9-1.5-4.6-3.3-4.6-6.8,0-.4-2.2-.7-3.2-1.4a12.11,12.11,0,0,1-2.5-3c-.2-.4.1-1.1.1-1.7,1,.4,2,1,3,1.3s2.1.5,3.1.8c.7.2,1.9.3,2.1.7,1.7,4,3.6,8,4.5,12.2.9,4.4,2.5,5.6,6.9,4.6,1.5-.4,3.4.9,5.1,1.5.2.1.3,1.2.2,1.2a12.86,12.86,0,0,1-1.9.4C60.2,358.9,60.2,358.8,60.2,358.6Z" transform="translate(192.1 192.2)"/><path class="a" d="M288.6,51c-.9,3.8-1.8,7.6-2.8,11.3a16,16,0,0,1-1.2,2.7c-1-.8-2.9-1.6-2.9-2.3.1-3.3-.2-7.1,1.4-9.6,1.4-2.2,3.5-3.6,3-6.6-.1-.7.7-1.6,1.1-2.5a11.27,11.27,0,0,1,.8,2.4c.1,1.5,0,3,0,4.5A1.76,1.76,0,0,1,288.6,51Z" transform="translate(192.1 192.2)"/><path class="b" d="M3.7,189.5c-2.8,3.2-4.2,5-5.8,6.6-.2.2-1.4-.3-1.6-.7-1.5-3.1-3-6.2-4.2-9.4-.4-1,0-2.3.1-3.4,1.1.3,2.5.2,3.4.8C-1.7,185.3.8,187.3,3.7,189.5Z" transform="translate(192.1 192.2)"/><path class="a" d="M53.9,407.1c-8.7-2.6-12.6-10.1-17.2-16.8a5.56,5.56,0,0,1-.4-2.3c.7.2,1.6.2,2,.7,2.1,2.4,4.1,5.1,6.2,7.5,1.9,2.1,4.1,3.9,6,6A53.39,53.39,0,0,1,54,407Z" transform="translate(192.1 192.2)"/><path class="a" d="M354-62c-8.9,4.9-18.6,6.3-28.6,6.9-.5,0-1-.5-1.6-.7a10.93,10.93,0,0,1,1.5-.8c3.8-1.2,7.5-2.8,11.4-3.5,5.8-1,11.5-1.3,17.3-1.9Z" transform="translate(192.1 192.2)"/><path class="a" d="M-27.9,266.2c-1.5-.6-2.7-1-3.9-1.5,1-.3,1.9-.6,2.9-.9-.3-1.1-.4-2.4-1.1-3.2-1.8-2-3.3-11.1-2-13.4a14.93,14.93,0,0,1,1.2-1.4,8.36,8.36,0,0,1,.8,2c1,5.3,1,10.9,5.6,14.9a2.41,2.41,0,0,1,.4,1.5C-25.3,265-26.7,265.6-27.9,266.2Z" transform="translate(192.1 192.2)"/><path class="a" d="M108.9,264.8c-.5,3.6-.8,6.3-1.2,9a54.79,54.79,0,0,1-4.3-7.4c-.1-.3,2.7-2,4.3-2.8C107.8,263.4,108.8,264.6,108.9,264.8Z" transform="translate(192.1 192.2)"/><path class="c" d="M-46.16,381.75H-49V388h-3.52V370.94h6.34a7.17,7.17,0,0,1,4.66,1.35,4.65,4.65,0,0,1,1.64,3.81,5.25,5.25,0,0,1-.76,2.91,5.16,5.16,0,0,1-2.29,1.86l3.69,7V388H-43Zm-2.8-2.85h2.84a2.9,2.9,0,0,0,2.05-.67,2.41,2.41,0,0,0,.73-1.86,2.58,2.58,0,0,0-.69-1.9,2.85,2.85,0,0,0-2.1-.69H-49Z" transform="translate(192.1 192.2)"/><path class="c" d="M-37.41,372a1.67,1.67,0,0,1,.51-1.25,1.92,1.92,0,0,1,1.39-.49,1.92,1.92,0,0,1,1.38.49,1.66,1.66,0,0,1,.52,1.25,1.66,1.66,0,0,1-.52,1.27,1.92,1.92,0,0,1-1.38.49,1.92,1.92,0,0,1-1.38-.49A1.66,1.66,0,0,1-37.41,372Zm3.6,16h-3.4V375.32h3.4Z" transform="translate(192.1 192.2)"/><path class="c" d="M-25.75,385.5a2.22,2.22,0,0,0,1.52-.52,1.81,1.81,0,0,0,.61-1.37h3.18a4.34,4.34,0,0,1-.7,2.36A4.64,4.64,0,0,1-23,387.64a5.92,5.92,0,0,1-2.65.59A5.5,5.5,0,0,1-30,386.51a6.84,6.84,0,0,1-1.57-4.78v-.22A6.76,6.76,0,0,1-30,376.83a5.44,5.44,0,0,1,4.28-1.75,5.33,5.33,0,0,1,3.81,1.35,4.79,4.79,0,0,1,1.46,3.6h-3.18a2.33,2.33,0,0,0-.61-1.61,2,2,0,0,0-1.55-.62,2,2,0,0,0-1.79.86,5,5,0,0,0-.6,2.8v.35a5.07,5.07,0,0,0,.6,2.82A2.06,2.06,0,0,0-25.75,385.5Z" transform="translate(192.1 192.2)"/><path class="c" d="M-15.2,376.7a4.23,4.23,0,0,1,3.39-1.62q4.13,0,4.18,4.79V388H-11v-8a2.37,2.37,0,0,0-.47-1.62,2,2,0,0,0-1.56-.52A2.3,2.3,0,0,0-15.2,379v9h-3.39V370h3.39Z" transform="translate(192.1 192.2)"/><path class="c" d="M-1.9,375.32l.11,1.42a4.46,4.46,0,0,1,3.64-1.65A3.38,3.38,0,0,1,5.21,377,4.35,4.35,0,0,1,9,375.09a3.78,3.78,0,0,1,3.07,1.2,5.52,5.52,0,0,1,1,3.62V388H9.7v-8.1a2.42,2.42,0,0,0-.42-1.58,1.87,1.87,0,0,0-1.49-.5,2.11,2.11,0,0,0-2.11,1.46V388H2.31v-8.09a2.4,2.4,0,0,0-.43-1.6,1.88,1.88,0,0,0-1.48-.49A2.19,2.19,0,0,0-1.69,379v9H-5.07V375.32Z" transform="translate(192.1 192.2)"/><path class="c" d="M15.18,381.54a7.52,7.52,0,0,1,.73-3.36A5.32,5.32,0,0,1,18,375.89a6.1,6.1,0,0,1,3.17-.81,5.77,5.77,0,0,1,4.19,1.57,6.3,6.3,0,0,1,1.81,4.27l0,.87a6.63,6.63,0,0,1-1.63,4.68,5.66,5.66,0,0,1-4.37,1.76,5.69,5.69,0,0,1-4.38-1.76,6.74,6.74,0,0,1-1.63-4.78Zm3.39.24a4.74,4.74,0,0,0,.68,2.76,2.44,2.44,0,0,0,3.87,0,5.18,5.18,0,0,0,.69-3,4.69,4.69,0,0,0-.69-2.75,2.25,2.25,0,0,0-1.95-1,2.21,2.21,0,0,0-1.92,1A5.27,5.27,0,0,0,18.56,381.78Z" transform="translate(192.1 192.2)"/><path class="c" d="M32.39,375.32l.11,1.46a4.43,4.43,0,0,1,3.64-1.7,3.68,3.68,0,0,1,3,1.18,5.52,5.52,0,0,1,1,3.54V388H36.76v-8.13a2.21,2.21,0,0,0-.47-1.57,2.09,2.09,0,0,0-1.56-.49A2.33,2.33,0,0,0,32.59,379v9H29.2V375.32Z" transform="translate(192.1 192.2)"/><path class="c" d="M42.19,381.57a7.64,7.64,0,0,1,1.33-4.72,4.32,4.32,0,0,1,3.64-1.76,3.88,3.88,0,0,1,3.06,1.38V370h3.4v18H50.55l-.16-1.35a4,4,0,0,1-3.26,1.58,4.3,4.3,0,0,1-3.59-1.76A7.89,7.89,0,0,1,42.19,381.57Zm3.39.24a5,5,0,0,0,.62,2.74,2,2,0,0,0,1.8,1,2.27,2.27,0,0,0,2.21-1.33v-5A2.23,2.23,0,0,0,48,377.82Q45.57,377.82,45.57,381.81Z" transform="translate(192.1 192.2)"/><path class="c" d="M-79,157l2.3-12.14h3.5L-77,161.9h-3.54l-2.78-11.41-2.78,11.41H-89.6l-3.79-17.06h3.5L-87.58,157l2.81-12.12h3Z" transform="translate(192.1 192.2)"/><path class="c" d="M-64.55,161.9a3.76,3.76,0,0,1-.34-1.14,4.1,4.1,0,0,1-3.2,1.37,4.5,4.5,0,0,1-3.09-1.08,3.47,3.47,0,0,1-1.22-2.72,3.58,3.58,0,0,1,1.49-3.09,7.37,7.37,0,0,1,4.32-1.09H-65v-.73a2.09,2.09,0,0,0-.45-1.41,1.77,1.77,0,0,0-1.42-.53,2,2,0,0,0-1.34.41,1.39,1.39,0,0,0-.49,1.13h-3.39a3.4,3.4,0,0,1,.68-2,4.49,4.49,0,0,1,1.92-1.47,7,7,0,0,1,2.79-.53A5.53,5.53,0,0,1-63,150.16a4.12,4.12,0,0,1,1.38,3.31V159a6.06,6.06,0,0,0,.5,2.73v.2Zm-2.8-2.36a2.92,2.92,0,0,0,1.38-.33,2.19,2.19,0,0,0,.94-.9v-2.18H-66.3q-2.54,0-2.71,1.76v.2a1.36,1.36,0,0,0,.45,1A1.73,1.73,0,0,0-67.35,159.54Z" transform="translate(192.1 192.2)"/><path class="c" d="M-52.16,158.4a1.09,1.09,0,0,0-.62-1,7,7,0,0,0-2-.64q-4.52-.95-4.52-3.84a3.48,3.48,0,0,1,1.4-2.82A5.65,5.65,0,0,1-54.21,149a6.08,6.08,0,0,1,3.86,1.14,3.58,3.58,0,0,1,1.45,3h-3.39a1.64,1.64,0,0,0-.47-1.2,2,2,0,0,0-1.46-.47,2,2,0,0,0-1.32.39,1.22,1.22,0,0,0-.47,1,1,1,0,0,0,.53.91,5.49,5.49,0,0,0,1.8.6,14.69,14.69,0,0,1,2.13.57q2.68,1,2.68,3.41a3.31,3.31,0,0,1-1.49,2.81,6.42,6.42,0,0,1-3.84,1.07,6.71,6.71,0,0,1-2.83-.57A4.75,4.75,0,0,1-59,160a3.62,3.62,0,0,1-.7-2.14h3.21a1.77,1.77,0,0,0,.67,1.38,2.65,2.65,0,0,0,1.66.48,2.45,2.45,0,0,0,1.47-.37A1.15,1.15,0,0,0-52.16,158.4Z" transform="translate(192.1 192.2)"/><path class="c" d="M-43.39,150.6A4.23,4.23,0,0,1-40,149q4.13,0,4.18,4.79v8.12H-39.2v-8a2.37,2.37,0,0,0-.47-1.62,2,2,0,0,0-1.56-.52,2.3,2.3,0,0,0-2.16,1.15v9h-3.39v-18h3.39Z" transform="translate(192.1 192.2)"/><path class="c" d="M-33.28,145.94a1.67,1.67,0,0,1,.51-1.25,1.92,1.92,0,0,1,1.39-.49,1.92,1.92,0,0,1,1.38.49,1.66,1.66,0,0,1,.52,1.25,1.66,1.66,0,0,1-.52,1.27,1.92,1.92,0,0,1-1.38.49,1.92,1.92,0,0,1-1.38-.49A1.66,1.66,0,0,1-33.28,145.94Zm3.6,16h-3.4V149.22h3.4Z" transform="translate(192.1 192.2)"/><path class="c" d="M-23.78,149.22l.11,1.46A4.43,4.43,0,0,1-20,149a3.68,3.68,0,0,1,3,1.18,5.52,5.52,0,0,1,1,3.54v8.19h-3.39v-8.13a2.21,2.21,0,0,0-.47-1.57,2.09,2.09,0,0,0-1.56-.49,2.33,2.33,0,0,0-2.14,1.22v9H-27V149.22Z" transform="translate(192.1 192.2)"/><path class="c" d="M-13.95,155.47a7.43,7.43,0,0,1,1.39-4.7A4.5,4.5,0,0,1-8.82,149a4,4,0,0,1,3.25,1.43l.14-1.2h3.07v12.26a5.42,5.42,0,0,1-.76,2.89,4.85,4.85,0,0,1-2.13,1.88,7.48,7.48,0,0,1-3.21.64,7,7,0,0,1-2.72-.56,4.83,4.83,0,0,1-2-1.44l1.5-2.06a4,4,0,0,0,3.07,1.42,2.9,2.9,0,0,0,2.1-.72,2.7,2.7,0,0,0,.75-2v-.68a3.92,3.92,0,0,1-3.08,1.32,4.49,4.49,0,0,1-3.7-1.79,7.43,7.43,0,0,1-1.41-4.74Zm3.39.24a4.65,4.65,0,0,0,.69,2.71,2.2,2.2,0,0,0,1.9,1,2.35,2.35,0,0,0,2.21-1.17v-5.36a2.35,2.35,0,0,0-2.19-1.17,2.21,2.21,0,0,0-1.92,1A5.25,5.25,0,0,0-10.56,155.71Z" transform="translate(192.1 192.2)"/><path class="c" d="M4.3,146.1v3.12H6.47v2.48H4.3V158a1.51,1.51,0,0,0,.27,1,1.35,1.35,0,0,0,1,.3,5.4,5.4,0,0,0,1-.08v2.57a7,7,0,0,1-2.05.3q-3.56,0-3.63-3.6v-6.83H-.94v-2.48H.91V146.1Z" transform="translate(192.1 192.2)"/><path class="c" d="M7.47,155.44a7.52,7.52,0,0,1,.73-3.36,5.32,5.32,0,0,1,2.09-2.29,6.1,6.1,0,0,1,3.17-.81,5.77,5.77,0,0,1,4.19,1.57,6.3,6.3,0,0,1,1.81,4.27l0,.87a6.63,6.63,0,0,1-1.63,4.68,5.66,5.66,0,0,1-4.37,1.76,5.69,5.69,0,0,1-4.38-1.76,6.74,6.74,0,0,1-1.63-4.78Zm3.39.24a4.74,4.74,0,0,0,.68,2.76,2.24,2.24,0,0,0,1.95,1,2.25,2.25,0,0,0,1.92-.95,5.18,5.18,0,0,0,.69-3,4.69,4.69,0,0,0-.69-2.75,2.25,2.25,0,0,0-1.95-1,2.21,2.21,0,0,0-1.92,1A5.28,5.28,0,0,0,10.86,155.68Z" transform="translate(192.1 192.2)"/><path class="c" d="M24.69,149.22l.11,1.46a4.43,4.43,0,0,1,3.64-1.7,3.68,3.68,0,0,1,3,1.18,5.52,5.52,0,0,1,1,3.54v8.19H29.06v-8.13a2.21,2.21,0,0,0-.47-1.57,2.09,2.09,0,0,0-1.56-.49,2.33,2.33,0,0,0-2.14,1.22v9H21.5V149.22Z" transform="translate(192.1 192.2)"/><path class="c" d="M41.21,161.9V144.84h5.25a8,8,0,0,1,4,1,7.07,7.07,0,0,1,2.77,2.88,8.89,8.89,0,0,1,1,4.25v.79a8.92,8.92,0,0,1-1,4.23,7,7,0,0,1-2.76,2.87,8,8,0,0,1-4,1Zm3.52-14.21v11.39h1.7a3.82,3.82,0,0,0,3.15-1.35,6.09,6.09,0,0,0,1.11-3.86V153A6.19,6.19,0,0,0,49.61,149a3.8,3.8,0,0,0-3.15-1.34Z" transform="translate(192.1 192.2)"/><path class="c" d="M55.33,160.24a1.7,1.7,0,0,1,.54-1.31,2.12,2.12,0,0,1,2.74,0,1.7,1.7,0,0,1,.54,1.31,1.68,1.68,0,0,1-.54,1.29,2.15,2.15,0,0,1-2.75,0A1.68,1.68,0,0,1,55.33,160.24Z" transform="translate(192.1 192.2)"/><path class="c" d="M75.75,156.22a6,6,0,0,1-2,4.34,7.14,7.14,0,0,1-4.83,1.58,6.42,6.42,0,0,1-5.16-2.21,9.06,9.06,0,0,1-1.88-6.06v-1a10.23,10.23,0,0,1,.87-4.34,6.5,6.5,0,0,1,2.48-2.88,7.75,7.75,0,0,1,8.5.58,6.49,6.49,0,0,1,2.09,4.44H72.25a3.56,3.56,0,0,0-.92-2.4,3.41,3.41,0,0,0-2.41-.74,3,3,0,0,0-2.63,1.26,7.06,7.06,0,0,0-.9,3.91v1.29a7.56,7.56,0,0,0,.84,4,2.93,2.93,0,0,0,2.64,1.28,3.47,3.47,0,0,0,2.43-.74,3.36,3.36,0,0,0,.92-2.3Z" transform="translate(192.1 192.2)"/><path class="c" d="M78,160.24a1.7,1.7,0,0,1,.54-1.31,2.12,2.12,0,0,1,2.74,0,1.7,1.7,0,0,1,.54,1.31,1.68,1.68,0,0,1-.54,1.29,2.15,2.15,0,0,1-2.75,0A1.68,1.68,0,0,1,78,160.24Z" transform="translate(192.1 192.2)"/><path class="c" d="M259.8-62h-3.52l-6.84-11.23V-62h-3.52V-79.06h3.52l6.86,11.25V-79.06h3.5Z" transform="translate(192.1 192.2)"/><path class="c" d="M268.48-61.77a6.22,6.22,0,0,1-4.54-1.71A6.08,6.08,0,0,1,262.19-68v-.33a7.66,7.66,0,0,1,.74-3.42A5.42,5.42,0,0,1,265-74.1a5.87,5.87,0,0,1,3.09-.81,5.26,5.26,0,0,1,4.1,1.64,6.67,6.67,0,0,1,1.49,4.65v1.38h-8.07a3.15,3.15,0,0,0,1,2,3,3,0,0,0,2.09.75,3.66,3.66,0,0,0,3.06-1.42l1.66,1.86a5.08,5.08,0,0,1-2.06,1.68A6.77,6.77,0,0,1,268.48-61.77Zm-.39-10.42a2.12,2.12,0,0,0-1.63.68,3.54,3.54,0,0,0-.8,2h4.71v-.27a2.52,2.52,0,0,0-.61-1.75A2.18,2.18,0,0,0,268.09-72.18Z" transform="translate(192.1 192.2)"/><path class="c" d="M286.64-66.61l1.66-8.07h3.27L288.34-62h-2.84l-2.4-8-2.4,8h-2.82l-3.23-12.68h3.27l1.65,8.06,2.32-8.06h2.45Z" transform="translate(192.1 192.2)"/><path class="c" d="M305.33-71.37l3.55-7.69h3.84l-5.6,10.88V-62h-3.57v-6.19L298-79.06h3.86Z" transform="translate(192.1 192.2)"/><path class="c" d="M312.78-68.46a7.52,7.52,0,0,1,.73-3.36,5.32,5.32,0,0,1,2.09-2.29,6.1,6.1,0,0,1,3.17-.81A5.77,5.77,0,0,1,323-73.34a6.3,6.3,0,0,1,1.81,4.27l0,.87a6.63,6.63,0,0,1-1.63,4.68,5.66,5.66,0,0,1-4.37,1.76,5.69,5.69,0,0,1-4.38-1.76,6.74,6.74,0,0,1-1.63-4.78Zm3.39.24a4.74,4.74,0,0,0,.68,2.76,2.24,2.24,0,0,0,1.95,1,2.25,2.25,0,0,0,1.92-.94,5.19,5.19,0,0,0,.69-3,4.69,4.69,0,0,0-.69-2.75,2.25,2.25,0,0,0-1.95-1,2.21,2.21,0,0,0-1.92,1A5.27,5.27,0,0,0,316.16-68.22Z" transform="translate(192.1 192.2)"/><path class="c" d="M334-71.5a9.2,9.2,0,0,0-1.22-.09,2.48,2.48,0,0,0-2.52,1.3V-62h-3.39V-74.68h3.2l.09,1.51A3.14,3.14,0,0,1,333-74.91a3.55,3.55,0,0,1,1.05.15Z" transform="translate(192.1 192.2)"/><path class="c" d="M340.23-67.09,339-65.87V-62h-3.39V-80H339v10l.66-.84,3.25-3.81H347l-4.58,5.29,5,7.39h-3.89Z" transform="translate(192.1 192.2)"/><path class="c" d="M98.54,20v6H95V8.94h6.66a7.7,7.7,0,0,1,3.38.7,5.18,5.18,0,0,1,2.24,2,5.57,5.57,0,0,1,.79,2.95,4.9,4.9,0,0,1-1.72,4A7.15,7.15,0,0,1,101.62,20Zm0-2.85h3.14a3.09,3.09,0,0,0,2.13-.66,2.39,2.39,0,0,0,.73-1.87,2.81,2.81,0,0,0-.74-2,2.76,2.76,0,0,0-2-.8H98.54Z" transform="translate(192.1 192.2)"/><path class="c" d="M113.59,14.7A4.23,4.23,0,0,1,117,13.09q4.13,0,4.18,4.79V26h-3.39V18a2.36,2.36,0,0,0-.47-1.61,2,2,0,0,0-1.56-.52A2.3,2.3,0,0,0,113.59,17v9H110.2V8h3.39Z" transform="translate(192.1 192.2)"/><path class="c" d="M123.69,10a1.67,1.67,0,0,1,.51-1.25,2.2,2.2,0,0,1,2.77,0,1.66,1.66,0,0,1,.52,1.25,1.66,1.66,0,0,1-.52,1.27,2.17,2.17,0,0,1-2.75,0A1.66,1.66,0,0,1,123.69,10Zm3.6,16h-3.4V13.32h3.4Z" transform="translate(192.1 192.2)"/><path class="c" d="M133.65,26h-3.4V8h3.4Z" transform="translate(192.1 192.2)"/><path class="c" d="M143.79,26a3.76,3.76,0,0,1-.34-1.14,4.1,4.1,0,0,1-3.2,1.37,4.5,4.5,0,0,1-3.09-1.08,3.47,3.47,0,0,1-1.22-2.72,3.58,3.58,0,0,1,1.49-3.09,7.37,7.37,0,0,1,4.32-1.09h1.56v-.73a2.09,2.09,0,0,0-.45-1.41,1.77,1.77,0,0,0-1.42-.53,2,2,0,0,0-1.34.41,1.39,1.39,0,0,0-.49,1.13h-3.39a3.4,3.4,0,0,1,.68-2,4.49,4.49,0,0,1,1.92-1.47,7,7,0,0,1,2.79-.53,5.53,5.53,0,0,1,3.72,1.18,4.12,4.12,0,0,1,1.38,3.31v5.5a6.06,6.06,0,0,0,.5,2.73V26ZM141,23.65a2.92,2.92,0,0,0,1.38-.33,2.19,2.19,0,0,0,.94-.9V20.23H142q-2.54,0-2.71,1.76v.2a1.36,1.36,0,0,0,.45,1A1.73,1.73,0,0,0,141,23.65Z" transform="translate(192.1 192.2)"/><path class="c" d="M148.78,19.57a7.64,7.64,0,0,1,1.33-4.72,4.32,4.32,0,0,1,3.64-1.76,3.88,3.88,0,0,1,3.06,1.38V8h3.4V26h-3.06L157,24.65a4,4,0,0,1-3.26,1.58,4.3,4.3,0,0,1-3.59-1.76A7.89,7.89,0,0,1,148.78,19.57Zm3.39.24a5,5,0,0,0,.62,2.74,2,2,0,0,0,1.8,1,2.27,2.27,0,0,0,2.21-1.33v-5a2.23,2.23,0,0,0-2.19-1.33Q152.17,15.82,152.17,19.81Z" transform="translate(192.1 192.2)"/><path class="c" d="M168.67,26.23a6.22,6.22,0,0,1-4.54-1.71A6.08,6.08,0,0,1,162.37,20v-.33a7.66,7.66,0,0,1,.74-3.42,5.42,5.42,0,0,1,2.09-2.32,5.87,5.87,0,0,1,3.09-.81,5.26,5.26,0,0,1,4.1,1.64,6.67,6.67,0,0,1,1.49,4.65v1.38h-8.07a3.15,3.15,0,0,0,1,2,3,3,0,0,0,2.09.75,3.66,3.66,0,0,0,3.06-1.42l1.66,1.86a5.08,5.08,0,0,1-2.06,1.68A6.77,6.77,0,0,1,168.67,26.23Zm-.39-10.42a2.12,2.12,0,0,0-1.63.68,3.54,3.54,0,0,0-.8,2h4.71v-.27a2.52,2.52,0,0,0-.61-1.75A2.18,2.18,0,0,0,168.28,15.82Z" transform="translate(192.1 192.2)"/><path class="c" d="M179.38,26H176V8h3.4Z" transform="translate(192.1 192.2)"/><path class="c" d="M193.58,19.78a7.6,7.6,0,0,1-1.33,4.69,4.26,4.26,0,0,1-3.59,1.76,4,4,0,0,1-3.11-1.34v6h-3.39V13.32h3.14l.12,1.24a4,4,0,0,1,3.21-1.48,4.29,4.29,0,0,1,3.64,1.73,7.81,7.81,0,0,1,1.3,4.78Zm-3.39-.26a5,5,0,0,0-.63-2.74,2,2,0,0,0-1.82-1A2.22,2.22,0,0,0,185.55,17v5.21a2.25,2.25,0,0,0,2.21,1.26Q190.19,23.5,190.19,19.52Z" transform="translate(192.1 192.2)"/><path class="c" d="M199,14.7a4.23,4.23,0,0,1,3.39-1.62q4.13,0,4.18,4.79V26h-3.39V18a2.36,2.36,0,0,0-.47-1.61,2,2,0,0,0-1.56-.52A2.3,2.3,0,0,0,199,17v9h-3.39V8H199Z" transform="translate(192.1 192.2)"/><path class="c" d="M209.08,10a1.67,1.67,0,0,1,.51-1.25,2.2,2.2,0,0,1,2.77,0,1.66,1.66,0,0,1,.52,1.25,1.66,1.66,0,0,1-.52,1.27,2.17,2.17,0,0,1-2.75,0A1.66,1.66,0,0,1,209.08,10Zm3.6,16h-3.4V13.32h3.4Z" transform="translate(192.1 192.2)"/><path class="c" d="M222.82,26a3.76,3.76,0,0,1-.34-1.14,4.1,4.1,0,0,1-3.2,1.37,4.5,4.5,0,0,1-3.09-1.08A3.47,3.47,0,0,1,215,22.44a3.58,3.58,0,0,1,1.49-3.09,7.37,7.37,0,0,1,4.32-1.09h1.56v-.73a2.09,2.09,0,0,0-.45-1.41,1.77,1.77,0,0,0-1.42-.53,2,2,0,0,0-1.34.41,1.39,1.39,0,0,0-.49,1.13h-3.39a3.4,3.4,0,0,1,.68-2,4.49,4.49,0,0,1,1.92-1.47,7,7,0,0,1,2.79-.53,5.53,5.53,0,0,1,3.72,1.18,4.12,4.12,0,0,1,1.38,3.31v5.5a6.06,6.06,0,0,0,.5,2.73V26ZM220,23.65a2.92,2.92,0,0,0,1.38-.33,2.19,2.19,0,0,0,.94-.9V20.23h-1.27q-2.54,0-2.71,1.76v.2a1.36,1.36,0,0,0,.45,1A1.73,1.73,0,0,0,220,23.65Z" transform="translate(192.1 192.2)"/><path class="d" d="M128.22,111.53a18.41,18.41,0,1,1,36.81,0c0,10.17-18.41,37.25-18.41,37.25S128.22,121.7,128.22,111.53Z" transform="translate(192.1 192.2)"/><circle class="e" cx="338.72" cy="302.62" r="10.54"/></svg>