<svg id="Layer_1" data-name="Layer 1" xmlns="http://www.w3.org/2000/svg" viewBox="0 0 564.31 118.8"><defs><style>.cls-1{fill:#fff;}</style></defs><title>logo-small-white</title><path class="cls-1" d="M52.12,41.69V50.9H49.05v9.21H74.36q7-.16,10.74-3.93a12.52,12.52,0,0,0,3.84-9.11V45.53a12.32,12.32,0,0,0-5-10,12.78,12.78,0,0,0,1.47-3.26,13,13,0,0,0,.5-3.59V27.11A12.29,12.29,0,0,0,81.94,18Q78,14.24,70.53,14.06H49.05v9.21h3.07V41.69Zm9.2-18.42h9.21a9.69,9.69,0,0,1,1.59.17,7.09,7.09,0,0,1,2.95,1.2,4.08,4.08,0,0,1,0,6.48,7.21,7.21,0,0,1-2.95,1.19,9.69,9.69,0,0,1-1.59.17H61.32Zm0,18.42H73.6a9.69,9.69,0,0,1,1.59.17,7.23,7.23,0,0,1,3,1.2,4.1,4.1,0,0,1,0,6.48,7.21,7.21,0,0,1-3,1.19,9.69,9.69,0,0,1-1.59.17H61.32Z" transform="translate(0 0)"/><path class="cls-1" d="M109.87,13.83a17.83,17.83,0,0,0-12.65,5q-5.48,5-5.76,16v4.66q.29,11,5.76,16a17.86,17.86,0,0,0,12.65,4.94h3.07a17.88,17.88,0,0,0,12.66-4.94q5.46-5,5.75-16V34.77q-.28-11-5.75-16a17.85,17.85,0,0,0-12.66-5ZM122.15,37.1q-.11,9.07-3.07,12a9.63,9.63,0,0,1-7.67,2.72,9.62,9.62,0,0,1-7.67-2.72q-3-3-3.07-12,.09-9.06,3.07-12a9.66,9.66,0,0,1,7.67-2.72,9.67,9.67,0,0,1,7.67,2.72Q122.05,28,122.15,37.1Z" transform="translate(0 0)"/><path class="cls-1" d="M136.57,41.69V50.9H133.5v9.21h25.32q6.94-.16,10.74-3.93a12.55,12.55,0,0,0,3.83-9.11V45.53a12.32,12.32,0,0,0-5-10,12.13,12.13,0,0,0,1.47-3.26,12.61,12.61,0,0,0,.5-3.59V27.11A12.21,12.21,0,0,0,166.39,18q-3.9-3.77-11.41-3.94H133.5v9.21h3.07V41.69Zm9.21-18.42H155a9.51,9.51,0,0,1,1.59.17,7.13,7.13,0,0,1,3,1.2,4.1,4.1,0,0,1,0,6.48,7.24,7.24,0,0,1-3,1.19,9.51,9.51,0,0,1-1.59.17h-9.2Zm0,18.42h12.27a9.51,9.51,0,0,1,1.59.17,7.27,7.27,0,0,1,3,1.2,4.1,4.1,0,0,1,0,6.48,7.24,7.24,0,0,1-3,1.19,9.51,9.51,0,0,1-1.59.17H145.78Z" transform="translate(0 0)"/><path class="cls-1" d="M201.27,23.27h3.07V58.58q0,4.61-4.61,4.6h-4.6v9.21h7.67a9.84,9.84,0,0,0,8-4.19,14,14,0,0,0,2.78-8.09V23.27h3.07V14.06H201.27Z" transform="translate(0 0)"/><path class="cls-1" d="M241.4,60.37a17.86,17.86,0,0,0,12.65-4.94q5.47-5,5.76-16V34.77q-.3-11-5.76-16a17.83,17.83,0,0,0-12.65-5h-3.07a17.83,17.83,0,0,0-12.66,5q-5.46,5-5.75,16v4.66q.29,11,5.75,16a17.87,17.87,0,0,0,12.66,4.94ZM229.12,37.1q.1-9.06,3.07-12a12.17,12.17,0,0,1,15.34,0q3,3,3.07,12-.09,9.07-3.07,12a12.17,12.17,0,0,1-15.34,0Q229.22,46.17,229.12,37.1Z" transform="translate(0 0)"/><polygon class="cls-1" points="261.96 50.9 261.96 60.11 277.3 60.11 277.3 50.9 274.23 50.9 274.23 41.69 289.57 41.69 289.57 50.9 286.51 50.9 286.51 60.11 301.85 60.11 301.85 50.9 298.78 50.9 298.78 23.27 301.85 23.27 301.85 14.06 286.51 14.06 286.51 23.27 289.57 23.27 289.57 32.48 274.23 32.48 274.23 23.27 277.3 23.27 277.3 14.06 261.96 14.06 261.96 23.27 265.03 23.27 265.03 50.9 261.96 50.9"/><polygon class="cls-1" points="305.37 50.9 305.37 60.11 320.71 60.11 320.71 50.9 317.64 50.9 317.64 30.95 332.22 60.11 342.19 60.11 342.19 23.27 345.26 23.27 345.26 14.06 329.92 14.06 329.92 23.27 332.98 23.27 332.98 41.69 319.18 14.06 305.37 14.06 305.37 23.27 308.44 23.27 308.44 50.9 305.37 50.9"/><path class="cls-1" d="M348.07,45.51v7.74a13.94,13.94,0,0,0,1.79,1.85,20.62,20.62,0,0,0,5.35,3.43,21.89,21.89,0,0,0,8.92,1.85,19.64,19.64,0,0,0,7-1.25A12.64,12.64,0,0,0,377,54.76c1.56-2.06,2.38-4.89,2.44-8.47,0-3.29-.78-5.79-2.2-7.49a13.31,13.31,0,0,0-5.6-3.88q-3.45-1.32-7.49-2.57a18.73,18.73,0,0,1-3.71-1.45,3.58,3.58,0,0,1-2-3.19h0a5.39,5.39,0,0,1,1.13-3.78c.8-.95,2.33-1.5,4.57-1.64a13.57,13.57,0,0,1,4,.32,4.16,4.16,0,0,1,1.32.5v2.28h8.41v-7c0-.19-1.13-1-3.35-2.32s-5.43-2.13-9.65-2.32q-16,0-16.05,13.93.18,6.2,4.54,9.11a39.52,39.52,0,0,0,10.75,4.82,25.56,25.56,0,0,1,3.92,1.45,3.59,3.59,0,0,1,2.19,3.2c-.09,2.26-.86,3.74-2.29,4.45a9.38,9.38,0,0,1-4.59,1c-2.28-.1-3.87-.49-4.79-1.17s-1.36-1.06-1.32-1.16V45.51Z" transform="translate(0 0)"/><path class="cls-1" d="M402.38,60.37A17.9,17.9,0,0,0,415,55.43q5.46-5,5.75-16V34.77q-.29-11-5.75-16a17.87,17.87,0,0,0-12.66-5h-3.07a17.87,17.87,0,0,0-12.66,5q-5.46,5-5.75,16v4.66q.28,11,5.75,16a17.9,17.9,0,0,0,12.66,4.94ZM390.1,37.1h0q.11-9.06,3.07-12a12.17,12.17,0,0,1,15.34,0q3,3,3.07,12-.09,9.07-3.07,12a12.17,12.17,0,0,1-15.34,0Q390.2,46.17,390.1,37.1Z" transform="translate(0 0)"/><polygon class="cls-1" points="422.94 50.9 422.94 60.11 438.28 60.11 438.28 50.9 435.21 50.9 435.21 30.95 449.79 60.11 459.76 60.11 459.76 23.27 462.83 23.27 462.83 14.06 447.49 14.06 447.49 23.27 450.56 23.27 450.56 41.69 436.75 14.06 422.94 14.06 422.94 23.27 426.01 23.27 426.01 50.9 422.94 50.9"/><path class="cls-1" d="M486,45.51v7.74a13.38,13.38,0,0,0,1.78,1.85,21,21,0,0,0,5.35,3.43A21.93,21.93,0,0,0,502,60.38a19.66,19.66,0,0,0,7-1.25,12.69,12.69,0,0,0,5.83-4.37c1.56-2.06,2.37-4.89,2.44-8.47q-.08-4.93-2.2-7.49a13.38,13.38,0,0,0-5.6-3.88c-2.31-.88-4.8-1.74-7.5-2.57a18.65,18.65,0,0,1-3.7-1.45,3.58,3.58,0,0,1-2-3.19h0a5.39,5.39,0,0,1,1.13-3.78q1.2-1.42,4.56-1.64a13.64,13.64,0,0,1,4,.32,4.16,4.16,0,0,1,1.32.5v2.28h8.41v-7c0-.19-1.13-1-3.35-2.32S507,14,502.81,13.78q-16.05,0-16.06,13.93.18,6.2,4.55,9.11A39.59,39.59,0,0,0,502,41.64,25.18,25.18,0,0,1,506,43.09a3.59,3.59,0,0,1,2.2,3.2c-.09,2.26-.86,3.74-2.29,4.45a9.43,9.43,0,0,1-4.59,1c-2.28-.1-3.88-.49-4.79-1.17s-1.36-1.06-1.33-1.16V45.51Z" transform="translate(0 0)"/><path class="cls-1" d="M77.4,82.09a7.2,7.2,0,0,0-5.57,2.09A8.46,8.46,0,0,0,70,90.08v16.55a8.46,8.46,0,0,0,1.88,5.9,7.2,7.2,0,0,0,5.57,2.09A7.18,7.18,0,0,0,83,112.53a8.51,8.51,0,0,0,1.89-5.9V102.4H80.12v4.54a3.42,3.42,0,0,1-.7,2.4,2.38,2.38,0,0,1-1.89.69,2.41,2.41,0,0,1-1.89-.69,3.47,3.47,0,0,1-.7-2.4V89.77a3.55,3.55,0,0,1,.7-2.42,2.42,2.42,0,0,1,1.89-.72,2.39,2.39,0,0,1,1.89.72,3.5,3.5,0,0,1,.7,2.42v3.4h4.73V90.08A8.51,8.51,0,0,0,83,84.18,7.18,7.18,0,0,0,77.4,82.09Z" transform="translate(0 0)"/><path class="cls-1" d="M101.7,82.09a7.39,7.39,0,0,0-5.63,2.09,8.34,8.34,0,0,0-1.95,5.9v16.55a8.34,8.34,0,0,0,1.95,5.9,8.63,8.63,0,0,0,11.26,0,8.3,8.3,0,0,0,2-5.9V90.08a8.3,8.3,0,0,0-2-5.9A7.39,7.39,0,0,0,101.7,82.09Zm2.59,24.85a3.5,3.5,0,0,1-.7,2.42,2.39,2.39,0,0,1-1.89.72,2.42,2.42,0,0,1-1.89-.72,3.5,3.5,0,0,1-.7-2.42V89.77a3.5,3.5,0,0,1,.7-2.42,2.42,2.42,0,0,1,1.89-.72,2.39,2.39,0,0,1,1.89.72,3.5,3.5,0,0,1,.7,2.42Z" transform="translate(0 0)"/><polygon class="cls-1" points="129.72 105.03 126.04 82.45 119.09 82.45 119.09 114.26 123.45 114.26 123.45 91.77 127.18 114.26 131.9 114.26 135.35 91.45 135.35 114.26 140.08 114.26 140.08 82.45 133.13 82.45 129.72 105.03"/><path class="cls-1" d="M157.68,82.45h-7.36v31.81h5v-12h2.37c2.49,0,4.36-.68,5.59-2a8.26,8.26,0,0,0,1.85-5.84V90.31a8.26,8.26,0,0,0-1.85-5.84C162,83.13,160.17,82.46,157.68,82.45Zm2.45,12.31a3.46,3.46,0,0,1-.63,2.36,2.29,2.29,0,0,1-1.82.64h-2.37V87h2.37a2.33,2.33,0,0,1,1.82.65,3.43,3.43,0,0,1,.63,2.35Z" transform="translate(0 0)"/><path class="cls-1" d="M184,107a3.45,3.45,0,0,1-.7,2.4,2.45,2.45,0,0,1-1.89.69,2.48,2.48,0,0,1-1.89-.69,3.45,3.45,0,0,1-.7-2.4V82.45h-5v24.22a8.51,8.51,0,0,0,1.88,5.91,8.45,8.45,0,0,0,11.13,0,8.51,8.51,0,0,0,1.88-5.91V82.45H184Z" transform="translate(0 0)"/><polygon class="cls-1" points="197.29 86.99 202.52 86.99 202.52 114.26 207.51 114.26 207.51 86.99 212.74 86.99 212.74 82.45 197.29 82.45 197.29 86.99"/><polygon class="cls-1" points="221.5 114.26 235.12 114.26 235.12 109.72 226.49 109.72 226.49 100.4 233.35 100.4 233.35 95.86 226.49 95.86 226.49 86.99 235.12 86.99 235.12 82.45 221.5 82.45 221.5 114.26"/><path class="cls-1" d="M259.77,110.4v-4.91a10.37,10.37,0,0,0-.72-4.24,4.78,4.78,0,0,0-2.6-2.53,5.08,5.08,0,0,0,2.47-2.39,8.9,8.9,0,0,0,.8-4.06v-2.5q0-3.69-1.76-5.5c-1.19-1.22-3.07-1.82-5.64-1.82h-7.54v31.81h5v-13h1.72a3,3,0,0,1,2.49.91,4.81,4.81,0,0,1,.78,3.13v5a18.73,18.73,0,0,0,.13,2.62,6.35,6.35,0,0,0,.33,1.29h5.08a6.65,6.65,0,0,1-.46-1.79A19,19,0,0,1,259.77,110.4Zm-5-17a3.65,3.65,0,0,1-.8,2.64,3,3,0,0,1-2.2.72h-1.95V87h2.4a2.3,2.3,0,0,1,1.94.79,4.07,4.07,0,0,1,.61,2.49Z" transform="translate(0 0)"/><path class="cls-1" d="M290.16,95a7.41,7.41,0,0,1-2.53-5.26,3.61,3.61,0,0,1,.66-2.42,2.27,2.27,0,0,1,1.84-.72,2.31,2.31,0,0,1,1.85.72,3.67,3.67,0,0,1,.65,2.42v1.31h4.72v-1a8.55,8.55,0,0,0-1.85-5.9,8.3,8.3,0,0,0-11,0,8.55,8.55,0,0,0-1.85,5.9,10.48,10.48,0,0,0,2.53,7c1.57,1.69,3.13,3.24,4.7,4.64a7.37,7.37,0,0,1,2.53,5.26,3.42,3.42,0,0,1-.7,2.4,2.38,2.38,0,0,1-1.89.69,2.41,2.41,0,0,1-1.89-.69,3.42,3.42,0,0,1-.7-2.4v-2.27H282.5v2a8.46,8.46,0,0,0,1.88,5.9,8.45,8.45,0,0,0,11.13,0,8.46,8.46,0,0,0,1.89-5.9,10.54,10.54,0,0,0-2.53-7Q292.52,97.14,290.16,95Z" transform="translate(0 0)"/><polygon class="cls-1" points="305.37 86.99 310.59 86.99 310.59 114.26 315.59 114.26 315.59 86.99 320.81 86.99 320.81 82.45 305.37 82.45 305.37 86.99"/><path class="cls-1" d="M339.52,107a3.45,3.45,0,0,1-.7,2.4,2.93,2.93,0,0,1-3.78,0,3.45,3.45,0,0,1-.7-2.4V82.45h-5v24.22a8.56,8.56,0,0,0,1.89,5.91,8.45,8.45,0,0,0,11.13,0,8.51,8.51,0,0,0,1.88-5.91V82.45h-4.72Z" transform="translate(0 0)"/><polygon class="cls-1" points="354.27 114.26 359.27 114.26 359.27 101.13 365.72 101.13 365.72 96.58 359.27 96.58 359.27 86.99 367.49 86.99 367.49 82.45 354.27 82.45 354.27 114.26"/><polygon class="cls-1" points="376.49 114.26 381.49 114.26 381.49 101.13 387.94 101.13 387.94 96.58 381.49 96.58 381.49 86.99 389.71 86.99 389.71 82.45 376.49 82.45 376.49 114.26"/><polygon class="cls-1" points="398.71 114.26 400.62 114.26 399.3 118.81 401.34 118.81 403.52 113.76 403.52 109.44 398.71 109.44 398.71 114.26"/><rect class="cls-1" x="427.36" y="82.45" width="5" height="31.81"/><polygon class="cls-1" points="453.92 101.49 448.79 82.45 442.52 82.45 442.52 114.26 447.02 114.26 447.02 91.22 453.24 114.26 458.37 114.26 458.37 82.45 453.92 82.45 453.92 101.49"/><path class="cls-1" d="M475.64,82.09a7.2,7.2,0,0,0-5.57,2.09,8.46,8.46,0,0,0-1.88,5.9v16.55a8.46,8.46,0,0,0,1.88,5.9,8.45,8.45,0,0,0,11.13,0,8.51,8.51,0,0,0,1.89-5.9V102.4h-4.73v4.54a3.47,3.47,0,0,1-.69,2.4,2.95,2.95,0,0,1-3.79,0,3.42,3.42,0,0,1-.69-2.4V89.77a3.5,3.5,0,0,1,.69-2.42,2.85,2.85,0,0,1,3.79,0,3.55,3.55,0,0,1,.69,2.42v3.4h4.73V90.08a8.51,8.51,0,0,0-1.89-5.9A7.18,7.18,0,0,0,475.64,82.09Z" transform="translate(0 0)"/><rect class="cls-1" x="492.77" y="109.44" width="4.81" height="4.82"/><path class="cls-1" d="M564.26,0l0,.08S564.3,0,564.26,0Z" transform="translate(0 0)"/><polygon class="cls-1" points="553.56 6.25 519.28 66.28 216.69 66.28 216.69 72.53 522.91 72.53 564.3 0.07 0 0 41.44 72.53 189.91 72.53 189.91 66.28 45.06 66.28 10.78 6.25 553.56 6.25"/><polygon class="cls-1" points="466.24 6.25 466.24 30.27 471.76 25.13 475.25 32.77 478.69 31.15 475.53 23.76 483.9 23.76 466.4 6.25 466.24 6.25"/></svg>